<svg xmlns="http://www.w3.org/2000/svg" xmlns:xlink="http://www.w3.org/1999/xlink" viewBox="39 36 64 64">
  <defs>
    <linearGradient id="linear-gradient" x1="0.5" x2="0.5" y2="1" gradientUnits="objectBoundingBox">
      <stop offset="0" stop-color="#ff6976"/>
      <stop offset="1" stop-color="#ee2c3c"/>
    </linearGradient>
    <filter id="Rectangle_681" x="0" y="0" width="142" height="142" filterUnits="userSpaceOnUse">
      <feOffset dy="3" input="SourceAlpha"/>
      <feGaussianBlur stdDeviation="13" result="blur"/>
      <feFlood flood-opacity="0.071"/>
      <feComposite operator="in" in2="blur"/>
      <feComposite in="SourceGraphic"/>
    </filter>
  </defs>
  <g id="Group_3059" data-name="Group 3059" transform="translate(-186 -1407.536)">
    <g id="Group_2996" data-name="Group 2996" transform="translate(-13069.395 -1109.858)">
      <g transform="matrix(1, 0, 0, 1, 13255.39, 2517.39)" filter="url(#Rectangle_681)">
        <rect id="Rectangle_681-2" data-name="Rectangle 681" width="64" height="64" rx="11" transform="translate(39 36)" fill="url(#linear-gradient)"/>
      </g>
    </g>
    <g id="Group_3002" data-name="Group 3002" transform="translate(24015 976.536)">
      <rect id="Rectangle_683" data-name="Rectangle 683" width="50" height="50" transform="translate(-23783 474)" fill="none"/>
      <g id="Group_3001" data-name="Group 3001" transform="translate(-23774.766 480.897)">
        <path id="Path_3240" data-name="Path 3240" d="M268.784,1198.461V1209.3a.588.588,0,0,1-.642.511h-28.5a.588.588,0,0,1-.642-.511v-32.488a.588.588,0,0,1,.642-.512h8.1" transform="translate(-239 -1174.158)" fill="none" stroke="#fff" stroke-linecap="round" stroke-width="1"/>
        <path id="Path_3241" data-name="Path 3241" d="M450.519,1176.3h8.125a.605.605,0,0,1,.642.56v4.076" transform="translate(-429.503 -1174.158)" fill="none" stroke="#fff" stroke-linecap="round" stroke-width="1"/>
        <path id="Rectangle_684" data-name="Rectangle 684" d="M3.929,0H8.5a3.929,3.929,0,0,1,3.929,3.929v0a.425.425,0,0,1-.425.425H.425A.425.425,0,0,1,0,3.929v0A3.929,3.929,0,0,1,3.929,0Z" transform="translate(8.676)" fill="none" stroke="#fff" stroke-width="1"/>
        <line id="Line_194" data-name="Line 194" x2="7.464" transform="translate(3.155 8.455)" fill="none" stroke="#fff" stroke-linecap="round" stroke-width="1"/>
        <g id="Group_2999" data-name="Group 2999" transform="translate(3.155 13.062)">
          <g id="Group_2998" data-name="Group 2998" transform="translate(6.752 1.041)">
            <line id="Line_195" data-name="Line 195" x2="9.718" fill="none" stroke="#fff" stroke-linecap="round" stroke-width="1"/>
            <line id="Line_196" data-name="Line 196" x2="9.718" transform="translate(0 2.335)" fill="none" stroke="#fff" stroke-linecap="round" stroke-width="1"/>
          </g>
          <rect id="Rectangle_685" data-name="Rectangle 685" width="5.111" height="4.417" rx="2.209" fill="none" stroke="#fff" stroke-linecap="round" stroke-width="1"/>
        </g>
        <line id="Line_197" data-name="Line 197" x2="11.989" transform="translate(9.907 23.127)" fill="none" stroke="#fff" stroke-linecap="round" stroke-width="1"/>
        <line id="Line_198" data-name="Line 198" x2="9.718" transform="translate(9.907 25.461)" fill="none" stroke="#fff" stroke-linecap="round" stroke-width="1"/>
        <rect id="Rectangle_686" data-name="Rectangle 686" width="5.111" height="4.417" rx="2.209" transform="translate(3.155 22.085)" fill="none" stroke="#fff" stroke-linecap="round" stroke-width="1"/>
        <g id="Group_3000" data-name="Group 3000" transform="translate(23.6 9.465)">
          <circle id="Ellipse_223" data-name="Ellipse 223" cx="6.184" cy="6.184" r="6.184" fill="none" stroke="#fff" stroke-width="1"/>
          <path id="Path_3242" data-name="Path 3242" d="M508.407,1292.212l1.423,1.414,4.609-4.609" transform="translate(-505.239 -1285.138)" fill="none" stroke="#fff" stroke-linecap="round" stroke-width="1"/>
        </g>
      </g>
    </g>
  </g>
</svg>