<svg xmlns="http://www.w3.org/2000/svg" xmlns:xlink="http://www.w3.org/1999/xlink" viewBox="57 54 42 41">
  <defs>
    <linearGradient id="linear-gradient" x1="0.1" y1="0.095" x2="0.925" y2="0.918" gradientUnits="objectBoundingBox">
      <stop offset="0" stop-color="#ff6976"/>
      <stop offset="1" stop-color="#ee2c3c"/>
    </linearGradient>
    <filter id="Rectangle_128" x="0" y="0" width="156" height="155" filterUnits="userSpaceOnUse">
      <feOffset dy="3" input="SourceAlpha"/>
      <feGaussianBlur stdDeviation="19" result="blur"/>
      <feFlood flood-color="#737373" flood-opacity="0.051"/>
      <feComposite operator="in" in2="blur"/>
      <feComposite in="SourceGraphic"/>
    </filter>
  </defs>
  <g id="Bridging" transform="translate(-926 -301)">
    <g transform="matrix(1, 0, 0, 1, 926, 301)" filter="url(#Rectangle_128)">
      <rect id="Rectangle_128-2" data-name="Rectangle 128" width="42" height="41" rx="10" transform="translate(57 54)" fill="url(#linear-gradient)"/>
    </g>
    <g id="Group_3048" data-name="Group 3048" transform="translate(-606.887 -382.637)">
      <path id="Path_3304" data-name="Path 3304" d="M1781.939,828.563c.158-1.009.308-1.966.46-2.923q.086-.541.178-1.081a1.189,1.189,0,0,1,1.216-1.036,1.258,1.258,0,0,1,1.273,1.071c.1.777.154,1.558.242,2.336.153,1.348.331,2.694.47,4.043a7.194,7.194,0,0,1,.071,2.49,2.777,2.777,0,0,1-.765,1.375q-1.551,1.508-3.1,3.019c-.166.163-.3.354-.456.532l.042.088c.213,0,.427-.007.64,0,.344.013.479.143.481.48q.006,1.693,0,3.386c0,.347-.132.476-.474.476q-2.979,0-5.957,0c-.372,0-.5-.136-.505-.516q0-1.63,0-3.261c0-.438.125-.562.554-.57.112,0,.224,0,.377,0,0-.147,0-.259,0-.371q0-1.238,0-2.477a1.968,1.968,0,0,1,.364-1.178q1.9-2.645,3.817-5.283C1781.123,828.817,1781.385,828.453,1781.939,828.563Zm-1.179,9.9a1.75,1.75,0,0,1,.731-1.244q1.5-1.469,3.01-2.928a1.862,1.862,0,0,0,.6-1.27,7.1,7.1,0,0,0-.027-1.154c-.192-1.721-.4-3.44-.6-5.161-.074-.643-.118-1.289-.188-1.932a.472.472,0,0,0-.5-.451c-.273.015-.386.169-.426.441-.141.96-.32,1.914-.458,2.874a3.919,3.919,0,0,0,.053,2.446.91.91,0,0,1-.081.811q-.889,1.83-1.738,3.679c-.2.428-.353.583-.624.469s-.309-.339-.118-.759c.52-1.139,1.009-2.3,1.6-3.4.333-.618.023-1.036-.193-1.588-.129.153-.229.257-.312.372-1.212,1.675-2.417,3.355-3.638,5.024a1.856,1.856,0,0,0-.369,1.166c.008.752,0,1.5,0,2.257,0,.11,0,.22,0,.343Zm1.126.86a.92.92,0,0,0-.145-.028c-1.641,0-3.282,0-4.923-.011-.221,0-.258.109-.257.292,0,.711.01,1.422-.006,2.132-.006.262.08.335.339.333,1.568-.01,3.136,0,4.7,0,.091,0,.182-.009.288-.015Z" transform="translate(-164.835 -72.065)" fill="#fff"/>
      <path id="Path_3305" data-name="Path 3305" d="M1604.289,838.384c-.146-.172-.279-.356-.439-.513-.978-.958-1.947-1.925-2.948-2.858a3.225,3.225,0,0,1-.981-2.93c.249-2.167.48-4.337.718-6.505.036-.332.065-.665.115-1a1.275,1.275,0,0,1,1.254-1.06,1.186,1.186,0,0,1,1.238,1.046c.213,1.308.42,2.616.637,3.97.636-.1.908.394,1.21.808q1.855,2.545,3.683,5.109a1.973,1.973,0,0,1,.358,1.18c0,.815,0,1.63,0,2.446,0,.113,0,.226,0,.393.179,0,.331-.007.482,0a.415.415,0,0,1,.448.453q0,1.724,0,3.449a.4.4,0,0,1-.453.442q-3.025,0-6.051,0a.384.384,0,0,1-.431-.425q-.006-1.74,0-3.48a.4.4,0,0,1,.429-.436c.227-.011.454,0,.681,0Zm-.264-9.111c-.111.271-.179.456-.262.633a.85.85,0,0,0,.03.883,9.417,9.417,0,0,1,.535,1.062q.6,1.309,1.177,2.627a.383.383,0,0,1-.21.569c-.23.094-.416-.02-.538-.285-.595-1.288-1.186-2.577-1.8-3.856a1.142,1.142,0,0,1-.079-.875c.062-.2.146-.392.2-.593a1,1,0,0,0,.038-.393c-.211-1.413-.439-2.824-.644-4.238-.042-.29-.136-.479-.451-.484-.273,0-.456.178-.491.5-.085.8-.154,1.6-.245,2.4-.176,1.545-.344,3.091-.549,4.632a2.852,2.852,0,0,0,.9,2.771c.98.86,1.884,1.807,2.82,2.717a1.6,1.6,0,0,1,.613,1.1h3.266c0-.971.02-1.912-.013-2.851a1.54,1.54,0,0,0-.281-.777c-.986-1.413-1.992-2.812-3-4.211C1604.732,830.177,1604.4,829.764,1604.024,829.273Zm-.09,12.763c1.721,0,3.4,0,5.085,0,.241,0,.241-.133.241-.3,0-.69-.015-1.38,0-2.069.008-.3-.083-.393-.387-.39-1.536.016-3.073.009-4.609.012-.11,0-.22.014-.333.021Z" transform="translate(0 -72.064)" fill="#fff"/>
      <path id="Path_3306" data-name="Path 3306" d="M1700.406,751.586a9.852,9.852,0,0,1,.948.47,4.3,4.3,0,0,1,2.12,3.722c.014.585.01,1.171,0,1.756-.006.4-.134.527-.536.528q-4.155,0-8.309,0c-.4,0-.526-.131-.526-.536a19.226,19.226,0,0,1,.04-2.224,4.241,4.241,0,0,1,2.588-3.51c.132-.062.269-.112.4-.169.009,0,.015-.014.049-.045a2.732,2.732,0,0,1-1.1-2.539,2.616,2.616,0,0,1,.963-1.772,2.731,2.731,0,0,1,3.742.24A2.766,2.766,0,0,1,1700.406,751.586Zm2.231,5.65c.374-2.99-.978-4.563-2.836-4.888.119.854.25,1.7.346,2.545a.957.957,0,0,1-.123.606,12.37,12.37,0,0,1-.877,1.062c-.244.28-.467.281-.708.005-.3-.346-.611-.689-.88-1.06a.864.864,0,0,1-.139-.544c.056-.581.156-1.157.236-1.735.041-.3.077-.593.129-.987a10.5,10.5,0,0,0-1.145.511,4.061,4.061,0,0,0-1.682,4.478h.925c0-.134,0-.246,0-.358,0-.491-.005-.982,0-1.473a.371.371,0,0,1,.411-.41.365.365,0,0,1,.377.41c0,.418,0,.836,0,1.253,0,.193,0,.386,0,.581h4.2a2.283,2.283,0,0,0,.025-.228c0-.533,0-1.066,0-1.6a.368.368,0,0,1,.4-.418.372.372,0,0,1,.388.4c.011.187,0,.376,0,.564,0,.424,0,.848,0,1.284Zm-5.772-7.882a1.926,1.926,0,1,0,1.915-1.926A1.929,1.929,0,0,0,1696.864,749.353Zm1.934,6.392c.207-.351.613-.51.539-.978-.119-.752-.206-1.508-.326-2.26a.387.387,0,0,0-.218-.259c-.182-.057-.214.1-.233.244-.1.765-.216,1.528-.312,2.294a.612.612,0,0,0,.069.378A6.067,6.067,0,0,0,1698.8,755.746Z" transform="translate(-88.297 0)" fill="#fff"/>
    </g>
  </g>
</svg>