<svg xmlns="http://www.w3.org/2000/svg" xmlns:xlink="http://www.w3.org/1999/xlink" viewBox="57 54 42 41">
  <defs>
    <linearGradient id="linear-gradient" x1="0.1" y1="0.095" x2="0.925" y2="0.918" gradientUnits="objectBoundingBox">
      <stop offset="0" stop-color="#ff6976"/>
      <stop offset="1" stop-color="#ee2c3c"/>
    </linearGradient>
    <filter id="Rectangle_131" x="0" y="0" width="156" height="155" filterUnits="userSpaceOnUse">
      <feOffset dy="3" input="SourceAlpha"/>
      <feGaussianBlur stdDeviation="19" result="blur"/>
      <feFlood flood-color="#737373" flood-opacity="0.051"/>
      <feComposite operator="in" in2="blur"/>
      <feComposite in="SourceGraphic"/>
    </filter>
  </defs>
  <g id="Hybrid_Live" data-name="Hybrid Live" transform="translate(-917 -589)">
    <g id="Group_1598" data-name="Group 1598" transform="translate(-65 -105.5)">
      <g transform="matrix(1, 0, 0, 1, 982, 694.5)" filter="url(#Rectangle_131)">
        <rect id="Rectangle_131-2" data-name="Rectangle 131" width="42" height="41" rx="10" transform="translate(57 54)" fill="url(#linear-gradient)"/>
      </g>
    </g>
    <g id="Group_3045" data-name="Group 3045" transform="translate(0 1.775)">
      <g id="Group_3044" data-name="Group 3044">
        <path id="Path_3295" data-name="Path 3295" d="M439.321,761.64H428.662c-.737,0-.85-.114-.85-.86q0-5.123,0-10.247c0-.753.139-.9.885-.9,2.476,0,4.953-.006,7.429,0a.554.554,0,0,0,.638-.417,2.757,2.757,0,0,1,2.6-1.8,2.729,2.729,0,0,1,2.568,1.776.589.589,0,0,0,.674.436c2.461-.01,4.922-.007,7.383,0,.807,0,.931.129.932.945q0,5.1,0,10.2c0,.746-.114.86-.85.861ZM428.9,750.694v9.856h20.951v-9.824c-.191-.012-.355-.03-.519-.03-2.244,0-4.488.006-6.732-.009a.531.531,0,0,0-.612.439,2.755,2.755,0,0,1-5.238-.01c-.114-.364-.284-.429-.617-.427-2.244.012-4.488.006-6.732.006Zm8.741-.47a1.731,1.731,0,1,0,3.462,0,1.731,1.731,0,0,0-3.462,0Z" transform="translate(555.188 -90.046)" fill="#fff"/>
        <path id="Path_3296" data-name="Path 3296" d="M495.21,684.3a3.983,3.983,0,0,1-.528-.349,7.756,7.756,0,0,0-6.013-2.177,7.655,7.655,0,0,0-4.772,2.048c-.46.418-.783.5-1.028.237s-.168-.561.307-1a8.93,8.93,0,0,1,12.205.135,1.108,1.108,0,0,1,.259.709C495.644,684.023,495.383,684.15,495.21,684.3Z" transform="translate(505.339 -29.492)" fill="#fff"/>
        <path id="Path_3297" data-name="Path 3297" d="M514.706,715.9c-.157.182-.256.391-.411.448a.707.707,0,0,1-.544-.078c-.348-.22-.642-.528-.993-.741a4.83,4.83,0,0,0-5.624.476c-.093.08-.182.165-.275.245a.5.5,0,0,1-.771-.025.456.456,0,0,1,.064-.728,10.4,10.4,0,0,1,2.134-1.316,5.705,5.705,0,0,1,6,1.183A3.739,3.739,0,0,1,514.706,715.9Z" transform="translate(484.271 -59.516)" fill="#fff"/>
      </g>
      <path id="Path_3298" data-name="Path 3298" d="M606.33,822.856v.9h2.178v.829h-2.2a5.644,5.644,0,0,0,.017.9c.016.1.223.22.347.226.583.025,1.167.023,1.75.009.316-.007.38.144.38.424s-.076.417-.389.413c-1.011-.014-2.021-.005-3.062-.005-.02-.184-.046-.318-.046-.452,0-1.214.006-2.428-.007-3.641,0-.333.1-.464.448-.456.844.021,1.69.016,2.534,0,.307,0,.435.084.44.417.005.357-.134.447-.463.436C607.636,822.842,607.008,822.856,606.33,822.856Z" transform="translate(394.074 -157.745)" fill="#fff"/>
      <path id="Path_3299" data-name="Path 3299" d="M547.473,821.873c-.207.583-.4,1.127-.595,1.67-.294.823-.577,1.651-.9,2.464a.572.572,0,0,1-.4.32c-.261,0-.7-.039-.757-.184-.55-1.394-1.036-2.813-1.54-4.224.733-.274.974-.174,1.205.476.288.808.569,1.619.854,2.428,0,.011.023.017.1.067.25-.747.5-1.476.739-2.206.015-.044.021-.09.034-.134C546.459,821.735,546.518,821.7,547.473,821.873Z" transform="translate(450.372 -157.536)" fill="#fff"/>
      <path id="Path_3300" data-name="Path 3300" d="M462.919,822.262a1.065,1.065,0,0,1,.162-.068c.809-.1.836-.08.836.72,0,.829.011,1.659,0,2.488-.006.331.1.475.445.46.475-.021.952.007,1.427-.007.32-.009.377.154.379.429,0,.291-.091.414-.4.408-.829-.015-1.658.007-2.487-.018-.123,0-.344-.179-.346-.277C462.912,825.017,462.919,823.636,462.919,822.262Z" transform="translate(523.321 -157.876)" fill="#fff"/>
      <path id="Path_3301" data-name="Path 3301" d="M517.251,824.359c0,.614-.015,1.228.006,1.842.012.34-.139.432-.44.4-.256-.024-.578.1-.574-.364q.016-1.911,0-3.822c0-.423.279-.353.534-.359s.492-.018.48.365C517.236,823.07,517.251,823.715,517.251,824.359Z" transform="translate(474.917 -157.792)" fill="#fff"/>
    </g>
  </g>
</svg>