<svg xmlns="http://www.w3.org/2000/svg" xmlns:xlink="http://www.w3.org/1999/xlink" viewBox="57 54 42 41">
  <defs>
    <linearGradient id="linear-gradient" x1="0.1" y1="0.095" x2="0.925" y2="0.918" gradientUnits="objectBoundingBox">
      <stop offset="0" stop-color="#ff6976"/>
      <stop offset="1" stop-color="#ee2c3c"/>
    </linearGradient>
    <filter id="Rectangle_129" x="0" y="0" width="156" height="155" filterUnits="userSpaceOnUse">
      <feOffset dy="3" input="SourceAlpha"/>
      <feGaussianBlur stdDeviation="19" result="blur"/>
      <feFlood flood-color="#737373" flood-opacity="0.051"/>
      <feComposite operator="in" in2="blur"/>
      <feComposite in="SourceGraphic"/>
    </filter>
  </defs>
  <g id="Group_3072" data-name="Group 3072" transform="translate(-1526 -476)">
    <g transform="matrix(1, 0, 0, 1, 1526, 476)" filter="url(#Rectangle_129)">
      <rect id="Rectangle_129-2" data-name="Rectangle 129" width="42" height="41" rx="10" transform="translate(57 54)" fill="url(#linear-gradient)"/>
    </g>
    <g id="Group_3071" data-name="Group 3071" transform="translate(-5234.074 -1459.109)">
      <path id="Path_3343" data-name="Path 3343" d="M6842.92,2021.162h-2.863c.057.353.113.684.164,1.016a.681.681,0,0,1-.23.729.69.69,0,0,1-.791-.007c-.277-.148-.566-.278-.832-.446a.494.494,0,0,0-.586-.008,9.7,9.7,0,0,1-.957.5.612.612,0,0,1-.92-.65c.031-.368.107-.732.168-1.126h-2.857c.057.345.105.686.168,1.022a.668.668,0,0,1-.217.7.626.626,0,0,1-.729.044c-.318-.166-.645-.321-.953-.506a.458.458,0,0,0-.527,0c-.3.177-.615.328-.922.49a.643.643,0,0,1-.973-.707c.059-.332.094-.67.176-1a.525.525,0,0,0-.205-.585c-.254-.221-.492-.462-.727-.705a.63.63,0,0,1,.15-1.066.424.424,0,0,0,.16-.308c.01-.968,0-1.936.006-2.9a3.65,3.65,0,0,1,2.568-3.681c1.43-.538,2.85-1.1,4.279-1.646.184-.07.281-.168.25-.371a.354.354,0,0,1,0-.1,1.22,1.22,0,0,0-.467-1.193,3.169,3.169,0,0,1-1.021-1.9c-.039-.19-.1-.295-.3-.33a1.691,1.691,0,0,1-1.084-2.644.786.786,0,0,0,.092-.412,16.352,16.352,0,0,1,.139-2.282,4.887,4.887,0,0,1,3.865-3.96c.273-.071.488-.008.555.271s-.127.4-.373.461a4.32,4.32,0,0,0-2.91,2.216,5.345,5.345,0,0,0-.479,3.007l.088.081a2.873,2.873,0,0,0,.443-.363.8.8,0,0,1,.705-.312,7.623,7.623,0,0,0,3.484-.637c.379-.166.744-.372,1.105-.575.531-.3.775-.27,1.188.167.27.286.547.567.8.87a7.845,7.845,0,0,1,.48.723l.262.049a4.433,4.433,0,0,0-3.223-5.185c-.066-.017-.129-.039-.193-.056-.252-.061-.381-.217-.312-.469s.262-.312.506-.26a5.074,5.074,0,0,1,4.021,5.031c0,.225.006.45,0,.675a2.265,2.265,0,0,0,.258,1.219,1.666,1.666,0,0,1-1.16,2.365.435.435,0,0,0-.385.405,3.459,3.459,0,0,1-1.119,1.956.778.778,0,0,0-.277.67c.014.765,0,.771.727,1.055q1.963.765,3.932,1.518a3.632,3.632,0,0,1,2.445,3.391,1.89,1.89,0,0,1,0,.235.362.362,0,0,1-.365.368.35.35,0,0,1-.381-.347,7.389,7.389,0,0,0-.146-1.067,2.471,2.471,0,0,0-1.332-1.621c-1.039-.477-2.113-.869-3.187-1.3-.416.833-.809,1.628-1.209,2.419-.336.661-.662.752-1.307.366a.921.921,0,0,0-.314.913c.205.99.352,1.992.512,2.991.037.224.09.375.359.378a2.608,2.608,0,0,1,.564.1.61.61,0,0,1,.33,1.041,3.707,3.707,0,0,1-.463.387l.061.091h1.773c-.162-.169-.3-.306-.43-.451a.62.62,0,0,1,.352-1.074c.371-.078.75-.127,1.152-.193v-2.067a2.437,2.437,0,0,1,.008-.338c.023-.227.141-.386.385-.385a.357.357,0,0,1,.375.391c.01.292,0,.585.008.878,0,.072.016.145.029.271a2.829,2.829,0,0,1,.262-.27.638.638,0,0,1,.928.216,5.642,5.642,0,0,1,.4.815.676.676,0,0,0,.842.514,2.236,2.236,0,0,0,.027-.261c.006-.3,0-.607.006-.911.01-.254.119-.45.4-.439.264.012.361.2.363.443,0,.36-.014.721.008,1.08a.427.427,0,0,0,.176.3.622.622,0,0,1,.166,1.021,10.235,10.235,0,0,1-.771.755.509.509,0,0,0-.193.556c.082.338.119.687.182,1.029a.64.64,0,0,1-.961.7c-.328-.172-.65-.359-.99-.508a.588.588,0,0,0-.424,0c-.34.147-.658.336-.988.509a.632.632,0,0,1-.756-.049.671.671,0,0,1-.2-.705C6842.816,2021.846,6842.863,2021.513,6842.92,2021.162Zm-6.359-6.7c-.674.382-.973.291-1.324-.393-.043-.08-.08-.161-.119-.242-.357-.71-.711-1.419-1.07-2.14-1.018.4-2.023.731-2.982,1.172a2.618,2.618,0,0,0-1.646,2.4c-.035,1.09-.018,2.183-.02,3.273a.51.51,0,0,0,.043.15c.578-.038.578-.039.814-.528.129-.263.254-.528.393-.784a.628.628,0,0,1,1.064-.139c.039.041.086.075.182.158,0-.436-.008-.807,0-1.176.01-.221.148-.4.361-.351a.775.775,0,0,1,.385.337c.055.076.018.219.018.331,0,.7,0,1.393,0,2.114.211.03.4.054.584.084s.377.059.563.1a.62.62,0,0,1,.338,1.095,3.8,3.8,0,0,1-.432.352l.078.085h1.77c-.189-.2-.355-.352-.492-.525a.606.606,0,0,1,.33-.986,3.08,3.08,0,0,1,.629-.112c.232-.011.291-.127.324-.332.158-.988.307-1.979.51-2.958A.972.972,0,0,0,6836.561,2014.464Zm-1.619-11.2c0,1.078-.049,2.113.023,3.141a2.886,2.886,0,0,0,.492,1.3,3.115,3.115,0,0,0,3.512,1.218,3.071,3.071,0,0,0,2.166-2.978c.021-.911.006-1.823,0-2.734a.467.467,0,0,0-.07-.283c-.316-.36-.65-.708-.982-1.064A8.85,8.85,0,0,1,6834.941,2003.268Zm3.125,14.662c-.182.364-.344.667-.484.979a.773.773,0,0,1-.646.475c-.342.048-.682.1-1.086.158.285.282.527.526.775.765a.765.765,0,0,1,.25.787c-.08.324-.115.658-.182,1.058.365-.189.676-.339.975-.506a.759.759,0,0,1,.8,0c.3.167.605.316.973.506-.068-.4-.1-.732-.182-1.058a.763.763,0,0,1,.25-.787c.248-.238.49-.483.773-.765-.4-.059-.742-.11-1.084-.158a.771.771,0,0,1-.645-.473C6838.408,2018.6,6838.246,2018.294,6838.066,2017.93Zm-9.047,1.61a9.606,9.606,0,0,0,.684.685.911.911,0,0,1,.314.993c-.061.281-.1.567-.17.933.381-.2.691-.348.99-.513a.746.746,0,0,1,.77,0c.309.17.625.327.984.515-.062-.392-.107-.724-.174-1.051a.782.782,0,0,1,.244-.792c.25-.236.484-.489.758-.768-.357-.054-.674-.114-.992-.146a.822.822,0,0,1-.742-.539c-.129-.3-.3-.585-.467-.921-.168.341-.322.615-.443.9a.851.851,0,0,1-.77.558C6829.693,2019.424,6829.387,2019.485,6829.02,2019.541Zm18.109,0c-.4-.059-.732-.112-1.062-.155a.782.782,0,0,1-.674-.482c-.137-.314-.3-.615-.482-.971-.17.337-.328.621-.455.917a.835.835,0,0,1-.744.542c-.322.034-.643.1-1.006.153.275.275.5.514.736.732a.814.814,0,0,1,.268.847c-.07.32-.105.648-.164,1.023.352-.182.656-.327.945-.493a.764.764,0,0,1,.826,0c.289.165.59.307.967.5-.066-.374-.113-.668-.172-.959a.875.875,0,0,1,.291-.938C6846.641,2020.054,6846.848,2019.818,6847.129,2019.542Zm-9.064-7.251c.43-.528.8-1.049,1.24-1.509a1.4,1.4,0,0,0,.3-1.269,4.313,4.313,0,0,1-3.137.012c.035.34-.029.689.111.9C6837.023,2011.062,6837.545,2011.649,6838.064,2012.292Zm3.3-.875c-.381-.149-.709-.287-1.047-.4a.3.3,0,0,0-.258.044c-.48.575-.947,1.161-1.439,1.771.51.361,1,.706,1.51,1.068C6840.547,2013.052,6840.945,2012.253,6841.363,2011.417Zm-3.855,1.411c-.488-.608-.943-1.177-1.408-1.738-.045-.057-.16-.121-.215-.1-.373.131-.738.282-1.117.433.422.846.82,1.645,1.236,2.476C6836.516,2013.534,6837,2013.192,6837.508,2012.828Zm-.258,4.857c.42-.836,1.057-1.044,1.635.01-.135-.807-.271-1.615-.41-2.432a4.057,4.057,0,0,0-.615.009.342.342,0,0,0-.238.2C6837.484,2016.2,6837.371,2016.945,6837.25,2017.685Zm1.668-3.7c-.26-.187-.5-.368-.752-.532a.227.227,0,0,0-.205,0c-.258.17-.5.355-.75.532A.934.934,0,0,0,6838.918,2013.983Zm-4.8-8.318v-1.793a.914.914,0,0,0-.824.919A.885.885,0,0,0,6834.119,2005.665Zm7.8.007a.9.9,0,0,0,.828-.984.827.827,0,0,0-.828-.814Z" transform="translate(-0.002)" fill="#fff"/>
    </g>
  </g>
</svg>