<svg xmlns="http://www.w3.org/2000/svg" xmlns:xlink="http://www.w3.org/1999/xlink" viewBox="57 54 42 41">
  <defs>
    <linearGradient id="linear-gradient" x1="0.1" y1="0.095" x2="0.925" y2="0.918" gradientUnits="objectBoundingBox">
      <stop offset="0" stop-color="#ff6976"/>
      <stop offset="1" stop-color="#ee2c3c"/>
    </linearGradient>
    <filter id="Rectangle_129" x="0" y="0" width="156" height="155" filterUnits="userSpaceOnUse">
      <feOffset dy="3" input="SourceAlpha"/>
      <feGaussianBlur stdDeviation="19" result="blur"/>
      <feFlood flood-color="#737373" flood-opacity="0.051"/>
      <feComposite operator="in" in2="blur"/>
      <feComposite in="SourceGraphic"/>
    </filter>
  </defs>
  <g id="Network" transform="translate(-1522 -400)">
    <g transform="matrix(1, 0, 0, 1, 1522, 400)" filter="url(#Rectangle_129)">
      <rect id="Rectangle_129-2" data-name="Rectangle 129" width="42" height="41" rx="10" transform="translate(57 54)" fill="url(#linear-gradient)"/>
    </g>
    <g id="Group_3058" data-name="Group 3058" transform="translate(-3197.787 -1176.686)">
      <path id="Path_3317" data-name="Path 3317" d="M4896.708,1764.718a4.913,4.913,0,1,1-4.887-4.929A4.943,4.943,0,0,1,4896.708,1764.718Zm-7.745,2.756c.4-.317.723-.754,1.136-.868a6.3,6.3,0,0,1,3.407.005c.413.118.734.556,1.111.859a3.9,3.9,0,0,0,.178-5.385,3.976,3.976,0,0,0-5.819-.194A3.93,3.93,0,0,0,4888.963,1767.474Zm2.833-.107v0c-.349,0-.7,0-1.048,0a.907.907,0,0,0-.757.428c-.17.238-.161.4.146.525a3.939,3.939,0,0,0,3.121.069,2.756,2.756,0,0,0,.469-.309,2.727,2.727,0,0,0-.4-.545.946.946,0,0,0-.516-.163C4892.473,1767.35,4892.133,1767.367,4891.8,1767.367Z" transform="translate(-94.018 -113.555)" fill="#fff"/>
      <path id="Path_3318" data-name="Path 3318" d="M5059.741,1720.9a2.493,2.493,0,1,1,2.5-2.449A2.506,2.506,0,0,1,5059.741,1720.9Zm.012-.93a1.564,1.564,0,0,0,.007-3.128,1.564,1.564,0,1,0-.007,3.128Z" transform="translate(-252.473 -72.755)" fill="#fff"/>
      <path id="Path_3319" data-name="Path 3319" d="M4788.262,1720.9a2.493,2.493,0,0,1,0-4.986,2.493,2.493,0,1,1,0,4.986Zm.016-.929a1.564,1.564,0,1,0-.013-3.128,1.564,1.564,0,0,0,.013,3.128Z" transform="translate(0 -72.752)" fill="#fff"/>
      <path id="Path_3320" data-name="Path 3320" d="M5059.764,1872.764a2.493,2.493,0,0,1,.014,4.986,2.493,2.493,0,1,1-.014-4.986Zm.018.929a1.564,1.564,0,1,0-.042,3.128,1.564,1.564,0,0,0,.042-3.128Z" transform="translate(-252.477 -218.621)" fill="#fff"/>
      <path id="Path_3321" data-name="Path 3321" d="M4785.8,1875.263a2.487,2.487,0,1,1,4.973,0,2.523,2.523,0,0,1-2.477,2.485A2.49,2.49,0,0,1,4785.8,1875.263Zm.928-.008a1.535,1.535,0,0,0,1.537,1.566,1.564,1.564,0,1,0,0-3.128A1.535,1.535,0,0,0,4786.727,1875.255Z" transform="translate(-0.011 -218.621)" fill="#fff"/>
      <path id="Path_3322" data-name="Path 3322" d="M4926.638,1953.6a2.476,2.476,0,0,1-4.953-.007,2.476,2.476,0,1,1,4.953.007Zm-.922.008a1.555,1.555,0,1,0-3.11-.042,1.555,1.555,0,1,0,3.11.042Z" transform="translate(-126.384 -291.47)" fill="#fff"/>
      <path id="Path_3323" data-name="Path 3323" d="M4926.638,1640.164a2.476,2.476,0,1,1-4.953-.007,2.476,2.476,0,0,1,4.953.007Zm-2.478-1.55a1.526,1.526,0,0,0-1.553,1.54,1.555,1.555,0,1,0,3.109,0A1.525,1.525,0,0,0,4924.16,1638.614Z" transform="translate(-126.384)" fill="#fff"/>
      <path id="Path_3324" data-name="Path 3324" d="M5024.179,1771.978l0-.008a.455.455,0,0,1,.164-.623l1.254-.728a.454.454,0,0,1,.62.163l0,.008a.454.454,0,0,1-.164.623l-1.254.727A.455.455,0,0,1,5024.179,1771.978Z" transform="translate(-221.641 -123.57)" fill="#fff"/>
      <path id="Path_3325" data-name="Path 3325" d="M4859.245,1866.66l1.256-.725a.455.455,0,0,1,.619.163l0,.008a.454.454,0,0,1-.164.624l-1.256.726a.454.454,0,0,1-.622-.168l0-.009A.454.454,0,0,1,4859.245,1866.66Z" transform="translate(-68.104 -212.214)" fill="#fff"/>
      <path id="Path_3326" data-name="Path 3326" d="M4861.118,1772l0,.008a.455.455,0,0,1-.62.165l-1.255-.723a.455.455,0,0,1-.169-.617l0-.009a.454.454,0,0,1,.623-.17l1.256.723A.455.455,0,0,1,4861.118,1772Z" transform="translate(-68.097 -123.6)" fill="#fff"/>
      <path id="Path_3327" data-name="Path 3327" d="M5024.166,1866.1l0-.008a.454.454,0,0,1,.618-.163l1.256.724a.454.454,0,0,1,.168.618l0,.009a.454.454,0,0,1-.621.168l-1.256-.725A.454.454,0,0,1,5024.166,1866.1Z" transform="translate(-221.633 -212.209)" fill="#fff"/>
      <rect id="Rectangle_704" data-name="Rectangle 704" width="0.861" height="2.298" rx="0.431" transform="translate(4797.349 1643.32)" fill="#fff"/>
      <rect id="Rectangle_705" data-name="Rectangle 705" width="0.853" height="2.316" rx="0.427" transform="translate(4797.353 1656.671)" fill="#fff"/>
      <path id="Path_3328" data-name="Path 3328" d="M4929.663,1793.123a1.918,1.918,0,1,1,1.926,1.937A1.905,1.905,0,0,1,4929.663,1793.123Zm1.91,1.009a.983.983,0,0,0,1.006-.984,1,1,0,0,0-1.01-1.021,1.009,1.009,0,0,0-1,1.007A1,1,0,0,0,4931.573,1794.131Z" transform="translate(-133.804 -142.776)" fill="#fff"/>
    </g>
  </g>
</svg>