<svg xmlns="http://www.w3.org/2000/svg" xmlns:xlink="http://www.w3.org/1999/xlink" viewBox="57 54 42 41">
  <defs>
    <linearGradient id="linear-gradient" x1="0.1" y1="0.095" x2="0.925" y2="0.918" gradientUnits="objectBoundingBox">
      <stop offset="0" stop-color="#ff6976"/>
      <stop offset="1" stop-color="#ee2c3c"/>
    </linearGradient>
    <filter id="Rectangle_131" x="0" y="0" width="156" height="155" filterUnits="userSpaceOnUse">
      <feOffset dy="3" input="SourceAlpha"/>
      <feGaussianBlur stdDeviation="19" result="blur"/>
      <feFlood flood-color="#737373" flood-opacity="0.051"/>
      <feComposite operator="in" in2="blur"/>
      <feComposite in="SourceGraphic"/>
    </filter>
  </defs>
  <g id="New_Age_" data-name="New Age " transform="translate(-917 -589)">
    <g transform="matrix(1, 0, 0, 1, 917, 589)" filter="url(#Rectangle_131)">
      <rect id="Rectangle_131-2" data-name="Rectangle 131" width="42" height="41" rx="10" transform="translate(57 54)" fill="url(#linear-gradient)"/>
    </g>
    <g id="Group_3049" data-name="Group 3049" transform="translate(-1312.007 -182.771)">
      <path id="Path_3307" data-name="Path 3307" d="M2343.852,1013.8q-2.507,0-5.015,0a2,2,0,0,1-2.109-1.507q-1.072-3.439-2.091-6.894a1.728,1.728,0,0,1,1.531-2.214,9.609,9.609,0,0,1,1.049-.028.309.309,0,0,0,.354-.264,5.121,5.121,0,0,1,5.186-3.882c1.016,0,2.037-.034,3.046.052a5.028,5.028,0,0,1,4.343,3.692c.08.3.194.439.524.408a4.728,4.728,0,0,1,.912.021,1.743,1.743,0,0,1,1.53,2.273c-.481,1.621-.983,3.236-1.475,4.854-.2.658-.383,1.322-.6,1.975a2.015,2.015,0,0,1-2.1,1.515Q2346.393,1013.806,2343.852,1013.8Zm.03-9.771c-2.44,0-4.88.023-7.32-.014a.992.992,0,0,0-1.034,1.4c.694,2.193,1.342,4.4,2.008,6.6a1.221,1.221,0,0,0,1.226.932q5.117.009,10.235,0a1.219,1.219,0,0,0,1.228-.929q1.006-3.318,2.01-6.637c.253-.839-.126-1.353-1-1.353Zm5.459-.893a4.207,4.207,0,0,0-3.839-3.235c-.993-.029-1.987-.017-2.98-.009a4.145,4.145,0,0,0-3.5,1.859,3.343,3.343,0,0,0-.6,1.384Z" transform="translate(-36.875 -154.968)" fill="#fff"/>
      <path id="Path_3308" data-name="Path 3308" d="M2414.958,853.822a18.493,18.493,0,0,1,1.918.32,2.882,2.882,0,0,1,2.127,3.747c-.111.434-.3.848-.441,1.275a2.078,2.078,0,0,0-.1.491,3.672,3.672,0,0,1-2.567,3.355,3.521,3.521,0,0,1-4.489-3.075,3.683,3.683,0,0,0-.247-1.032,4.753,4.753,0,0,1-.393-2.344,2.779,2.779,0,0,1,2.293-2.446C2413.675,853.977,2414.306,853.92,2414.958,853.822Zm-.017,3.785h-1.523c-.034,0-.068,0-.1,0a1.078,1.078,0,0,0-1.055,1.1c-.007.3,0,.609,0,.914a2.639,2.639,0,0,0,4.963,1.282,3.857,3.857,0,0,0,.367-2.1,1.093,1.093,0,0,0-1.194-1.2C2415.912,857.6,2415.426,857.607,2414.941,857.607Zm-3.239.053a2.293,2.293,0,0,1,2.246-.934c.845.031,1.693.007,2.539.007a1.922,1.922,0,0,1,1.442.636c.074.078.143.16.226.253a2.017,2.017,0,0,0-1.54-2.658,6.513,6.513,0,0,0-3.345-.008A2.042,2.042,0,0,0,2411.7,857.66Z" transform="translate(-107.885 -19.624)" fill="#fff"/>
      <path id="Path_3309" data-name="Path 3309" d="M2559.35,837.734c.028-.164.064-.455.129-.74a.572.572,0,0,0-.195-.656,5.225,5.225,0,0,1-.582-.566.776.776,0,0,1,.413-1.33,2.449,2.449,0,0,1,.6-.1.809.809,0,0,0,.863-.63,3.731,3.731,0,0,1,.234-.488.8.8,0,0,1,1.435-.009c.146.28.268.573.429.844a.516.516,0,0,0,.3.211c.317.074.646.1.965.17a.772.772,0,0,1,.406,1.346c-.194.2-.395.4-.606.591a.468.468,0,0,0-.171.534c.071.248.1.509.145.764a.8.8,0,0,1-.328.863.808.808,0,0,1-.9.008c-.238-.128-.486-.241-.715-.384a.422.422,0,0,0-.5.008,7.127,7.127,0,0,1-.809.423C2559.89,838.846,2559.339,838.479,2559.35,837.734Zm3.439.041a4.3,4.3,0,0,1-.063-1.444c.131-.4.551-.707.908-1.13a1.711,1.711,0,0,1-2.066-1.533c-.189.373-.326.617-.439.872a.928.928,0,0,1-.8.593c-.284.033-.566.081-.86.124.313.37.725.669.854,1.062a4.5,4.5,0,0,1-.041,1.453A1.688,1.688,0,0,1,2562.789,837.775Z" transform="translate(-245.595 0)" fill="#fff"/>
      <path id="Path_3310" data-name="Path 3310" d="M2295.88,837.787c.044-.251.08-.566.16-.87a.476.476,0,0,0-.172-.535c-.211-.187-.408-.39-.606-.59a.756.756,0,0,1-.216-.8.73.73,0,0,1,.623-.545c.311-.052.627-.084.932-.161a.629.629,0,0,0,.346-.248c.156-.247.268-.521.4-.783a.772.772,0,0,1,.719-.477.706.706,0,0,1,.739.489,1.481,1.481,0,0,0,1.591,1.166.706.706,0,0,1,.707.536.817.817,0,0,1-.264.887c-.174.16-.327.347-.513.491a.573.573,0,0,0-.2.656,5.138,5.138,0,0,1,.125.869.754.754,0,0,1-1.083.742c-.3-.124-.575-.314-.876-.439a.608.608,0,0,0-.423,0c-.291.119-.557.3-.845.426A.8.8,0,0,1,2295.88,837.787Zm.823-.058a4.443,4.443,0,0,1,1.362-.52,3.842,3.842,0,0,1,1.252.451,3.757,3.757,0,0,1-.043-1.325,4.465,4.465,0,0,1,.9-1.131,1.719,1.719,0,0,1-2.068-1.531c-.185.367-.319.6-.422.847a.981.981,0,0,1-.882.631c-.261.026-.521.071-.781.107l-.074.066A1.672,1.672,0,0,1,2296.7,837.728Z" transform="translate(0 -0.004)" fill="#fff"/>
      <path id="Path_3311" data-name="Path 3311" d="M2448.753,1113.115a1.371,1.371,0,0,1-1.03-.436,2.271,2.271,0,0,1-.016-3.119,1.485,1.485,0,0,1,2.2.043,2.3,2.3,0,0,1,.016,3A1.472,1.472,0,0,1,2448.753,1113.115Zm.952-2.006a5.841,5.841,0,0,0-.471-.937.6.6,0,0,0-.9-.016,1.429,1.429,0,0,0-.006,1.9.593.593,0,0,0,.922-.023A5.448,5.448,0,0,0,2449.7,1111.11Z" transform="translate(-141.778 -257.593)" fill="#fff"/>
    </g>
  </g>
</svg>