<svg xmlns="http://www.w3.org/2000/svg" xmlns:xlink="http://www.w3.org/1999/xlink" viewBox="57 54 72 72">
  <defs>
    <linearGradient id="linear-gradient" x1="0.5" x2="0.5" y2="1" gradientUnits="objectBoundingBox">
      <stop offset="0" stop-color="#ff6976"/>
      <stop offset="1" stop-color="#ee2c3c"/>
    </linearGradient>
    <filter id="Rectangle_419" x="0" y="0" width="186" height="186" filterUnits="userSpaceOnUse">
      <feOffset dy="3" input="SourceAlpha"/>
      <feGaussianBlur stdDeviation="19" result="blur"/>
      <feFlood flood-color="#aeaeae" flood-opacity="0.188"/>
      <feComposite operator="in" in2="blur"/>
      <feComposite in="SourceGraphic"/>
    </filter>
  </defs>
  <g id="Group_3066" data-name="Group 3066" transform="translate(19 -236)">
    <g transform="matrix(1, 0, 0, 1, -19, 236)" filter="url(#Rectangle_419)">
      <rect id="Rectangle_419-2" data-name="Rectangle 419" width="72" height="72" rx="16" transform="translate(57 54)" fill="url(#linear-gradient)"/>
    </g>
    <g id="Group_2576" data-name="Group 2576" transform="translate(23485.568 -2628.313)">
      <rect id="Rectangle_563" data-name="Rectangle 563" width="50.941" height="50.941" transform="translate(-23437.039 2928.843)" fill="none"/>
      <g id="Group_2570" data-name="Group 2570" transform="translate(-23429.154 2936.075)">
        <path id="Path_2930" data-name="Path 2930" d="M2839.278,1967.628h-8.788a1.015,1.015,0,0,1-1.015-1.015v-30.926a1.015,1.015,0,0,1,1.015-1.015h3.307" transform="translate(-2825.896 -1932.106)" fill="none" stroke="#fff" stroke-linecap="round" stroke-width="1"/>
        <path id="Path_2931" data-name="Path 2931" d="M2949.618,1934.672h13.842a1.015,1.015,0,0,1,1.015,1.015v16.688" transform="translate(-2934.085 -1932.106)" fill="none" stroke="#fff" stroke-linecap="round" stroke-width="1"/>
        <ellipse id="Ellipse_162" data-name="Ellipse 162" cx="3.899" cy="3.899" rx="3.899" ry="3.899" transform="translate(7.901)" fill="none" stroke="#fff" stroke-linecap="round" stroke-width="1"/>
        <path id="Path_2932" data-name="Path 2932" d="M2882.733,1975.97v6.074a.224.224,0,0,0,.369.17l2.594-2.229,2.565,2.2a.224.224,0,0,0,.369-.169v-6.049" transform="translate(-2873.855 -1969.295)" fill="none" stroke="#fff" stroke-linecap="round" stroke-width="1"/>
        <line id="Line_79" data-name="Line 79" x2="12.856" transform="translate(8.882 16.922)" fill="none" stroke="#fff" stroke-linecap="round" stroke-width="1"/>
        <line id="Line_80" data-name="Line 80" x2="5.705" transform="translate(9.085 19.893)" fill="none" stroke="#fff" stroke-linecap="round" stroke-width="1"/>
        <line id="Line_81" data-name="Line 81" x2="5.705" transform="translate(20.903 5.914)" fill="none" stroke="#fff" stroke-linecap="round" stroke-width="1"/>
        <line id="Line_82" data-name="Line 82" x2="5.705" transform="translate(20.903 9.29)" fill="none" stroke="#fff" stroke-linecap="round" stroke-width="1"/>
        <path id="Path_2933" data-name="Path 2933" d="M2805.489,2147.944h-11.065c-.51,0-.924-.29-.924-.648v-11.737c0-.358.414-.649.924-.649H2796" transform="translate(-2793.5 -2112.421)" fill="none" stroke="#fff" stroke-linecap="round" stroke-width="1"/>
        <g id="Group_2528" data-name="Group 2528" transform="translate(15.272 20.27)">
          <rect id="Rectangle_544" data-name="Rectangle 544" width="19.899" height="14.105" rx="1" transform="translate(0 2.099)" fill="none" stroke="#fff" stroke-linecap="round" stroke-width="1"/>
          <path id="Path_2934" data-name="Path 2934" d="M2955.48,2141.685h-5.365a3.115,3.115,0,0,1-3.115-3.115V2135a1.3,1.3,0,0,1,1.3-1.3H2965.6a1.3,1.3,0,0,1,1.295,1.3v3.566a3.115,3.115,0,0,1-3.115,3.115h-5.365" transform="translate(-2947 -2131.609)" fill="none" stroke="#fff" stroke-linecap="round" stroke-width="1"/>
          <rect id="Rectangle_545" data-name="Rectangle 545" width="2.855" height="4.786" rx="1.427" transform="translate(8.522 7.724)" fill="none" stroke="#fff" stroke-linecap="round" stroke-width="1"/>
          <line id="Line_83" data-name="Line 83" x2="19.899" transform="translate(0 14.189)" fill="none" stroke="#fff" stroke-linecap="round" stroke-width="1"/>
          <path id="Path_2935" data-name="Path 2935" d="M3019.416,2114.71v-1.34a.886.886,0,0,1,.972-.759h3.545a.886.886,0,0,1,.972.759v1.34" transform="translate(-3012.211 -2112.611)" fill="none" stroke="#fff" stroke-linecap="round" stroke-width="1"/>
        </g>
      </g>
    </g>
  </g>
</svg>