<svg xmlns="http://www.w3.org/2000/svg" xmlns:xlink="http://www.w3.org/1999/xlink" viewBox="57 54 42 41">
  <defs>
    <linearGradient id="linear-gradient" x1="0.1" y1="0.095" x2="0.925" y2="0.918" gradientUnits="objectBoundingBox">
      <stop offset="0" stop-color="#ff6976"/>
      <stop offset="1" stop-color="#ee2c3c"/>
    </linearGradient>
    <filter id="Rectangle_131" x="0" y="0" width="156" height="155" filterUnits="userSpaceOnUse">
      <feOffset dy="3" input="SourceAlpha"/>
      <feGaussianBlur stdDeviation="19" result="blur"/>
      <feFlood flood-color="#737373" flood-opacity="0.051"/>
      <feComposite operator="in" in2="blur"/>
      <feComposite in="SourceGraphic"/>
    </filter>
  </defs>
  <g id="Group_3070" data-name="Group 3070" transform="translate(-915.92 -649)">
    <g transform="matrix(1, 0, 0, 1, 915.92, 649)" filter="url(#Rectangle_131)">
      <rect id="Rectangle_131-2" data-name="Rectangle 131" width="42" height="41" rx="10" transform="translate(57 54)" fill="url(#linear-gradient)"/>
    </g>
    <g id="Group_3067" data-name="Group 3067" transform="translate(-4530.174 -445.598)">
      <path id="Path_3329" data-name="Path 3329" d="M5530.441,1160.369c1.057,0,2.059,0,3.062,0a1.589,1.589,0,0,1,1.7,1.693q0,7.635,0,15.269a2.771,2.771,0,0,1-2.876,2.875q-8.213,0-16.426,0a2.775,2.775,0,0,1-2.914-2.9q0-9.353,0-18.706c0-.49.114-.606.6-.606h16.261c.484,0,.6.117.6.6C5530.442,1159.174,5530.441,1159.755,5530.441,1160.369Zm-16.663-1.57v.354q0,9.058,0,18.117a1.993,1.993,0,0,0,2.148,2.142h14.542a3.346,3.346,0,0,1-.831-2.59c.015-5.874.008-11.747.008-17.621v-.4Zm16.678,18.631a1.977,1.977,0,1,0,3.95-.135q0-7.583,0-15.166a2.28,2.28,0,0,0,0-.231.8.8,0,0,0-.732-.73.773.773,0,0,0-.8.6,1.851,1.851,0,0,0-.044.456q0,7.319,0,14.638c0,.458-.109.569-.557.57C5531.671,1177.431,5531.078,1177.43,5530.456,1177.43Zm.007-16.257v15.435h1.563v-.423q0-6.74,0-13.481c0-.509.05-1.017.077-1.531Z" fill="#fff"/>
      <path id="Path_3330" data-name="Path 3330" d="M5555.336,1203.114h-5.75c-.483,0-.6-.117-.6-.6q0-3.966,0-7.931c0-.468.119-.589.58-.59H5561.1c.462,0,.582.122.583.588q0,3.966,0,7.931c0,.489-.115.606-.6.607Zm5.529-.81v-7.5H5549.8v7.5Z" transform="translate(-33.623 -33.619)" fill="#fff"/>
      <path id="Path_3331" data-name="Path 3331" d="M5650.985,1347.953q0-1.7,0-3.4c0-.441.126-.566.57-.566q2.412,0,4.824,0c.424,0,.557.129.557.546q0,3.419,0,6.839c0,.419-.132.549-.554.55q-2.412,0-4.824,0c-.446,0-.573-.125-.574-.563Q5650.984,1349.654,5650.985,1347.953Zm5.134,3.157v-6.3H5651.8v6.3Z" transform="translate(-128.877 -173.696)" fill="#fff"/>
      <path id="Path_3332" data-name="Path 3332" d="M5551.813,1355.982c.748,0,1.5,0,2.245,0,.348,0,.536.146.533.4s-.19.392-.542.393q-2.228,0-4.457,0c-.355,0-.541-.133-.549-.385s.186-.408.558-.409C5550.339,1355.981,5551.076,1355.982,5551.813,1355.982Z" transform="translate(-33.675 -184.901)" fill="#fff"/>
      <path id="Path_3333" data-name="Path 3333" d="M5551.818,1385.985q1.106,0,2.212,0c.375,0,.568.141.563.4s-.192.389-.544.389q-2.229,0-4.457,0c-.354,0-.54-.136-.546-.388s.186-.4.561-.406Q5550.712,1385.983,5551.818,1385.985Z" transform="translate(-33.678 -212.92)" fill="#fff"/>
      <path id="Path_3334" data-name="Path 3334" d="M5551.825,1416.779c-.748,0-1.5,0-2.245,0-.348,0-.536-.146-.533-.4s.189-.392.542-.392q2.228,0,4.457,0c.354,0,.541.134.549.384s-.187.409-.558.409C5553.3,1416.78,5552.563,1416.779,5551.825,1416.779Z" transform="translate(-33.679 -240.936)" fill="#fff"/>
      <path id="Path_3335" data-name="Path 3335" d="M5551.817,1445.982c.749,0,1.5,0,2.245,0,.347,0,.535.148.53.4s-.191.39-.544.39q-2.229,0-4.457,0c-.354,0-.54-.135-.547-.387s.186-.406.561-.406C5550.343,1445.981,5551.08,1445.982,5551.817,1445.982Z" transform="translate(-33.677 -268.95)" fill="#fff"/>
      <path id="Path_3336" data-name="Path 3336" d="M5586.291,1222.51a1.621,1.621,0,0,1-1.132-1.158,1.515,1.515,0,0,1,1.442-1.951,5.077,5.077,0,0,0,2.728-.8c.233-.122.468-.245.709-.351.342-.151.612,0,.614.371q.013,2.344,0,4.688a.383.383,0,0,1-.594.361c-.626-.3-1.251-.6-1.858-.928a1.742,1.742,0,0,0-1.112-.176v.686c0,.673-.087.869-.389.876s-.406-.19-.406-.892Zm3.557.174v-3.451c-.508.253-.99.486-1.462.737a.326.326,0,0,0-.105.245q-.015.743,0,1.486a.326.326,0,0,0,.106.245C5588.858,1222.2,5589.339,1222.431,5589.848,1222.684Zm-2.382-2.515c-.294,0-.567-.016-.838,0a.787.787,0,0,0-.023,1.568c.28.025.564,0,.861,0Z" transform="translate(-67.356 -56.224)" fill="#fff"/>
      <path id="Path_3337" data-name="Path 3337" d="M5680.7,1278.312c.005-.312.225-.531.439-.451a5.154,5.154,0,0,1,1.024.515.47.47,0,0,1,.063.455.478.478,0,0,1-.427.176,4.848,4.848,0,0,1-.916-.446C5680.783,1278.5,5680.733,1278.362,5680.7,1278.312Z" transform="translate(-156.625 -111.931)" fill="#fff"/>
      <path id="Path_3338" data-name="Path 3338" d="M5682.5,1224.618c0,.391-.247.483-.468.565-.3.111-.557.464-.929.206a.368.368,0,0,1,.048-.632,6.08,6.08,0,0,1,.822-.409A.369.369,0,0,1,5682.5,1224.618Z" transform="translate(-156.861 -61.941)" fill="#fff"/>
      <path id="Path_3339" data-name="Path 3339" d="M5681.906,1253.815c.143,0,.311-.048.422.012a.693.693,0,0,1,.343.369.335.335,0,0,1-.34.4,5.76,5.76,0,0,1-.855,0,.364.364,0,0,1-.365-.39.372.372,0,0,1,.368-.389,3.894,3.894,0,0,1,.427,0Z" transform="translate(-157.011 -89.473)" fill="#fff"/>
    </g>
  </g>
</svg>