<svg xmlns="http://www.w3.org/2000/svg" xmlns:xlink="http://www.w3.org/1999/xlink" viewBox="57 54 42 41">
  <defs>
    <linearGradient id="linear-gradient" x1="0.1" y1="0.095" x2="0.925" y2="0.918" gradientUnits="objectBoundingBox">
      <stop offset="0" stop-color="#ff6976"/>
      <stop offset="1" stop-color="#ee2c3c"/>
    </linearGradient>
    <filter id="Rectangle_131" x="0" y="0" width="156" height="155" filterUnits="userSpaceOnUse">
      <feOffset dy="3" input="SourceAlpha"/>
      <feGaussianBlur stdDeviation="19" result="blur"/>
      <feFlood flood-color="#737373" flood-opacity="0.051"/>
      <feComposite operator="in" in2="blur"/>
      <feComposite in="SourceGraphic"/>
    </filter>
  </defs>
  <g id="Placement" transform="translate(-982 -694.5)">
    <g id="Group_3057" data-name="Group 3057">
      <g transform="matrix(1, 0, 0, 1, 982, 694.5)" filter="url(#Rectangle_131)">
        <rect id="Rectangle_131-2" data-name="Rectangle 131" width="42" height="41" rx="10" transform="translate(57 54)" fill="url(#linear-gradient)"/>
      </g>
      <g id="Group_3056" data-name="Group 3056" transform="translate(-3107.102 -607.031)">
        <path id="Path_3315" data-name="Path 3315" d="M4167.352,1370.164c.279-.107.49-.177.69-.271a.289.289,0,0,0,.157-.193c.011-.73.016-1.461,0-2.191a.653.653,0,0,0-.662-.658.994.994,0,0,1-1.083-.883.694.694,0,0,0-.652-.587c-.432-.035-.866-.04-1.3-.043-.242,0-.422-.079-.425-.339s.169-.356.413-.354c.395,0,.79-.007,1.184,0a1.407,1.407,0,0,1,1.453,1.111.441.441,0,0,0,.495.376,1.32,1.32,0,0,1,1.268,1.28c.02.72.018,1.441,0,2.161-.005.255.086.318.324.314q1.065-.018,2.131,0c.228,0,.331-.064.3-.3a1.959,1.959,0,0,1,0-.355.744.744,0,0,1,.714-.731c.334-.016.671-.015,1.006,0a.753.753,0,0,1,.731.777c.021.608.021.608.637.608.909,0,1.816,0,2.724,0,.723,0,1.025.31,1.025,1.029q0,3.849,0,7.7c0,.7-.307,1.014-1.007,1.017-1,0-1.993,0-2.99,0h-.388v1.327c0,.286,0,.573,0,.859,0,.247-.074.434-.35.455-.232.018-.37-.156-.372-.463,0-.622-.012-1.244,0-1.865.005-.247-.072-.32-.318-.318-.7.006-.7,0-.7.7,0,2.013.006,4.027-.006,6.04,0,.291.088.365.367.357.649-.018.649,0,.649-.668,0-.809,0-1.618,0-2.428,0-.328.14-.508.374-.5s.347.181.348.494q0,1.466,0,2.931a.784.784,0,0,1-.845.852q-8.277,0-16.553,0a.911.911,0,0,1-.986-.976c0-1.628-.007-3.257,0-4.885a3.293,3.293,0,0,1,2.062-3.018c1.347-.534,2.7-1.057,4.049-1.579.246-.095.483-.167.419-.519-.043-.239.05-.482-.2-.692a3.369,3.369,0,0,1-1.238-2.465c-.014-.223-.076-.31-.311-.308a1.423,1.423,0,0,1-1.406-.94,1.5,1.5,0,0,1,.275-1.629.605.605,0,0,0,.094-.358c0-.592-.021-1.184-.016-1.775a9.554,9.554,0,0,1,.07-1.562,2.559,2.559,0,0,1,2.482-2.061c.276,0,.553,0,.829,0,.232,0,.386.106.385.35s-.156.329-.39.343a6.846,6.846,0,0,0-1.346.124,1.846,1.846,0,0,0-1.333,1.766c-.014.829-.009,1.658,0,2.487a.629.629,0,0,0,.673.665c1.293.006,2.586.02,3.879-.006a1.832,1.832,0,0,0,1.573-.908c.129-.207.269-.377.542-.308.241.061.281.255.323.474A2.514,2.514,0,0,0,4167.352,1370.164Zm-8.913,13.751V1383q0-.829,0-1.657c0-.232.108-.389.342-.4s.346.158.365.38c.011.108.007.217.007.325,0,1.588,0,3.176,0,4.764,0,.24.063.324.315.321,1.025-.013,2.052-.015,3.078,0,.271,0,.324-.1.339-.343.063-1.043.145-2.085.221-3.127.06-.816.124-1.631.184-2.447.017-.226-.007-.392-.312-.415a.915.915,0,0,1-.478-.261q-.935-.842-1.843-1.711a.361.361,0,0,0-.445-.086c-.666.272-1.338.529-2.007.791a2.675,2.675,0,0,0-1.792,2.566c-.013,1.539,0,3.077,0,4.616,0,.318.089.406.4.409.454,0,.908-.007,1.361.005.207.006.274-.062.272-.27C4158.434,1385.612,4158.439,1384.764,4158.439,1383.915Zm14.408-5h4.557c.385,0,.394-.01.394-.4q0-3.758,0-7.516c0-.365-.022-.388-.383-.388q-4.543,0-9.085,0c-.273,0-.383.072-.382.368q.015,3.788,0,7.575c0,.281.081.378.37.375C4169.829,1378.911,4171.338,1378.917,4172.848,1378.918Zm-5.489.3c-.355.329-.676.636-1.009.927a.813.813,0,0,1-.421.248c-.375.008-.377.226-.358.493.14,1.877.282,3.754.415,5.632.014.2.12.211.272.21,1.065,0,2.13,0,3.2,0a1.853,1.853,0,0,0,.24-.032v-.375q0-2.456,0-4.911c0-.247.073-.434.342-.466.22-.026.37.165.38.46,0,.089,0,.177,0,.266,0,1.588,0,3.176.007,4.763,0,.1.087.277.144.281.35.026.7.013,1.057.013v-7.088h-.377c-.957,0-1.914,0-2.87,0A1.113,1.113,0,0,1,4167.359,1379.217Zm-.828-8.909a.374.374,0,0,0-.069.047,2.714,2.714,0,0,1-2,.728c-.9-.019-1.794,0-2.691-.007-.179,0-.274.035-.27.241.011.6-.02,1.2.013,1.8a2.909,2.909,0,0,0,4.37,2.412,2.452,2.452,0,0,0,1.36-1.929c.074-.821.019-1.655.012-2.483a.354.354,0,0,0-.083-.232C4166.974,1370.691,4166.757,1370.509,4166.531,1370.308Zm-1.247,16.4c-.145-1.936-.287-3.829-.431-5.752-.263,0-.488-.014-.71.009-.06.006-.146.116-.156.188-.038.263-.051.529-.07.795q-.157,2.138-.312,4.276c-.011.155-.03.309-.048.485Zm-2.3-10.363a3.107,3.107,0,0,1-.042.613.332.332,0,0,0,.126.381c.394.358.785.718,1.166,1.089.137.133.232.134.37,0,.4-.381.811-.748,1.213-1.126a.3.3,0,0,0,.108-.191c-.014-.243-.052-.484-.084-.755A3.869,3.869,0,0,1,4162.986,1376.344Zm-1.766,1.642,1.842,1.713.7-.748-.789-.732c-.759-.7-.759-.7-1.695-.281A.675.675,0,0,0,4161.22,1377.986Zm4.565,1.714c.481-.445.954-.849,1.376-1.3.1-.113.132-.485.049-.55-.179-.139-.553-.289-.672-.2a18.913,18.913,0,0,0-1.453,1.3Zm-5.827-8.837a.754.754,0,0,0-.2.938.867.867,0,0,0,1.027.441c0-.255-.01-.518,0-.781.012-.243-.008-.417-.327-.419A1.739,1.739,0,0,1,4159.958,1370.864Zm7.289,4.492c-.428.333-.812.641-.666,1.227.007.028-.007.063,0,.087.027.056.052.134.1.156.173.081.355.143.563.223Zm-2.823,3.926c-.18.194-.36.374-.519.571a.309.309,0,0,0-.041.253.258.258,0,0,0,.2.117,5.451,5.451,0,0,0,.706,0,.3.3,0,0,0,.221-.123.3.3,0,0,0-.054-.255C4164.782,1379.654,4164.607,1379.481,4164.424,1379.282Zm7.927-10.057c.03.241.017.591.083.608a1.892,1.892,0,0,0,.865.007c.075-.018.068-.373.1-.589-.121-.013-.178-.024-.235-.025C4172.921,1369.223,4172.676,1369.224,4172.351,1369.224Z" transform="translate(0 0)" fill="#fff"/>
        <path id="Path_3316" data-name="Path 3316" d="M4391.6,1481.037c.015-.183.022-.32.037-.456a1.163,1.163,0,0,1,1.132-1.046c.513-.008,1.026,0,1.539,0a1.17,1.17,0,0,1,1.226,1.2c0,.087.011.174.019.274.188.021.364.027.534.062a.87.87,0,0,1,.749.891q.011,1.583,0,3.167a.877.877,0,0,1-.926.9q-2.324.007-4.647,0a.865.865,0,0,1-.931-.865q-.036-1.612,0-3.225a.9.9,0,0,1,.916-.9C4391.353,1481.03,4391.46,1481.037,4391.6,1481.037Zm4.546,2.858c-.7,0-1.37,0-2.038.006-.062,0-.122.09-.185.138-.116.089-.233.247-.348.245s-.229-.162-.341-.256c-.048-.04-.09-.125-.136-.125-.686-.008-1.372-.006-2.079-.006,0,.369,0,.7,0,1.037s.066.4.4.4c.8,0,1.6,0,2.4,0,.65,0,1.3,0,1.952,0,.274,0,.4-.109.384-.391C4396.141,1484.611,4396.151,1484.276,4396.151,1483.9Zm-2.57-2.137c-.74,0-1.479,0-2.218,0-.236,0-.347.091-.339.332s.009.513,0,.769c-.009.231.1.322.319.322.552,0,1.1.006,1.656-.006.083,0,.169-.087.247-.143.114-.08.227-.24.331-.234.123.008.235.16.354.245.072.051.149.13.225.131.562.011,1.124,0,1.686.006.224,0,.319-.11.312-.332s-.011-.474,0-.709c.015-.28-.1-.387-.385-.382C4395.04,1481.766,4394.31,1481.758,4393.581,1481.758Zm-.008-.724h.886c.36,0,.426-.085.34-.44a.469.469,0,0,0-.506-.364c-.472-.009-.945-.013-1.417,0a.5.5,0,0,0-.366.144,1.22,1.22,0,0,0-.132.543c0,.031.219.1.338.109C4393,1481.046,4393.288,1481.034,4393.573,1481.034Z" transform="translate(-220.711 -108.082)" fill="#fff"/>
      </g>
    </g>
  </g>
</svg>