<svg xmlns="http://www.w3.org/2000/svg" xmlns:xlink="http://www.w3.org/1999/xlink" viewBox="57 54 42 41">
  <defs>
    <linearGradient id="linear-gradient" x1="0.1" y1="0.095" x2="0.925" y2="0.918" gradientUnits="objectBoundingBox">
      <stop offset="0" stop-color="#ff6976"/>
      <stop offset="1" stop-color="#ee2c3c"/>
    </linearGradient>
    <filter id="Rectangle_129" x="0" y="0" width="156" height="155" filterUnits="userSpaceOnUse">
      <feOffset dy="3" input="SourceAlpha"/>
      <feGaussianBlur stdDeviation="19" result="blur"/>
      <feFlood flood-color="#737373" flood-opacity="0.051"/>
      <feComposite operator="in" in2="blur"/>
      <feComposite in="SourceGraphic"/>
    </filter>
  </defs>
  <g id="Robust_Security" data-name="Robust Security" transform="translate(-1569 -400)">
    <g transform="matrix(1, 0, 0, 1, 1569, 400)" filter="url(#Rectangle_129)">
      <rect id="Rectangle_129-2" data-name="Rectangle 129" width="42" height="41" rx="10" transform="translate(57 54)" fill="url(#linear-gradient)"/>
    </g>
    <g id="Group_2646" data-name="Group 2646" transform="translate(1633.5 465.5)">
      <g id="Group_2641" data-name="Group 2641" transform="translate(5.309 0.767)">
        <path id="Path_3059" data-name="Path 3059" d="M322.939,3082.879l.124.044,7.655,2.756.02.235a15.9,15.9,0,0,1-.806,6.82,12.68,12.68,0,0,1-2.674,4.349,12.019,12.019,0,0,1-4.193,2.953l-.138.05-.135-.058a11.939,11.939,0,0,1-4.92-3.832,13.442,13.442,0,0,1-2.2-4.694,16.824,16.824,0,0,1-.49-5.644l.027-.228Zm7.083,3.333-7.085-2.55-7.043,2.507a16.737,16.737,0,0,0,.5,5.171,11.393,11.393,0,0,0,6.553,7.951,11.812,11.812,0,0,0,3.8-2.736A13.147,13.147,0,0,0,330.023,3086.211Z" transform="translate(-315.123 -3082.879)" fill="#fff"/>
        <g id="Group_2640" data-name="Group 2640" transform="translate(4.332 4.467)">
          <path id="Rectangle_602" data-name="Rectangle 602" d="M.6-.5H5.416A1.106,1.106,0,0,1,6.521.6V4.169a1.106,1.106,0,0,1-1.1,1.1H.6a1.106,1.106,0,0,1-1.1-1.1V.6A1.106,1.106,0,0,1,.6-.5ZM5.416,4.537a.369.369,0,0,0,.368-.368V.6A.369.369,0,0,0,5.416.236H.6A.369.369,0,0,0,.236.6V4.169A.369.369,0,0,0,.6,4.537Z" transform="translate(0.5 2.995)" fill="#fff"/>
          <path id="Rectangle_603" data-name="Rectangle 603" d="M1.907-.5A2.41,2.41,0,0,1,4.314,1.907v.824H-.5V1.907A2.41,2.41,0,0,1,1.907-.5ZM3.578,1.995V1.907a1.671,1.671,0,1,0-3.341,0v.088Z" transform="translate(1.651 0.5)" fill="#fff"/>
          <g id="Group_2639" data-name="Group 2639" transform="translate(2.447 4.366)">
            <path id="Ellipse_183" data-name="Ellipse 183" d="M.564-.5A1.064,1.064,0,1,1-.5.564,1.065,1.065,0,0,1,.564-.5Zm0,1.391A.327.327,0,1,0,.236.564.328.328,0,0,0,.564.891Z" transform="translate(0.5 0.5)" fill="#fff"/>
            <path id="Line_140" data-name="Line 140" d="M-.132,1.116A.368.368,0,0,1-.5.748v-.88A.368.368,0,0,1-.132-.5a.368.368,0,0,1,.368.368v.88A.368.368,0,0,1-.132,1.116Z" transform="translate(1.196 1.891)" fill="#fff"/>
          </g>
        </g>
      </g>
      <g id="Group_2642" data-name="Group 2642" transform="translate(-0.5 -0.5)">
        <path id="Ellipse_184" data-name="Ellipse 184" d="M1.481-.5A1.981,1.981,0,1,1-.5,1.481,1.983,1.983,0,0,1,1.481-.5Zm0,3.225A1.245,1.245,0,1,0,.236,1.481,1.246,1.246,0,0,0,1.481,2.725Z" transform="translate(0.5 0.5)" fill="#fff"/>
        <path id="Path_3060" data-name="Path 3060" d="M261.319,3112.7h-3.631a.936.936,0,0,1-.935-.935v-1.572a.368.368,0,0,1,.736,0v1.572a.2.2,0,0,0,.2.2h3.631a.368.368,0,1,1,0,.736Z" transform="translate(-255.14 -3106.596)" fill="#fff"/>
      </g>
      <g id="Group_2643" data-name="Group 2643" transform="translate(1.318 12.284)">
        <path id="Ellipse_185" data-name="Ellipse 185" d="M1.481-.5A1.981,1.981,0,1,1-.5,1.481,1.983,1.983,0,0,1,1.481-.5Zm0,3.225A1.245,1.245,0,1,0,.236,1.481,1.246,1.246,0,0,0,1.481,2.725Z" transform="translate(0.5 2.639)" fill="#fff"/>
        <path id="Path_3061" data-name="Path 3061" d="M282.4,3245.621a.368.368,0,0,1-.368-.368v-1.572a.936.936,0,0,1,.935-.935H286.6a.368.368,0,1,1,0,.736h-3.631a.2.2,0,0,0-.2.2v1.572A.368.368,0,0,1,282.4,3245.621Z" transform="translate(-280.42 -3242.746)" fill="#fff"/>
      </g>
      <g id="Group_2644" data-name="Group 2644" transform="translate(18.325 12.46)">
        <path id="Ellipse_186" data-name="Ellipse 186" d="M1.481-.5A1.981,1.981,0,1,1-.5,1.481,1.983,1.983,0,0,1,1.481-.5Zm0,3.225A1.245,1.245,0,1,0,.236,1.481,1.246,1.246,0,0,0,1.481,2.725Z" transform="translate(3.085 2.639)" fill="#fff"/>
        <path id="Path_3062" data-name="Path 3062" d="M500.666,3248.068a.368.368,0,0,1-.368-.368v-1.572a.2.2,0,0,0-.2-.2h-3.631a.368.368,0,1,1,0-.736H500.1a.936.936,0,0,1,.935.935v1.572A.368.368,0,0,1,500.666,3248.068Z" transform="translate(-496.1 -3245.193)" fill="#fff"/>
      </g>
      <g id="Group_2645" data-name="Group 2645" transform="translate(20.231 -0.5)">
        <path id="Ellipse_187" data-name="Ellipse 187" d="M1.481-.5A1.981,1.981,0,1,1-.5,1.481,1.983,1.983,0,0,1,1.481-.5Zm0,3.225A1.245,1.245,0,1,0,.236,1.481,1.246,1.246,0,0,0,1.481,2.725Z" transform="translate(3.11 0.5)" fill="#fff"/>
        <path id="Path_3063" data-name="Path 3063" d="M526.6,3112.7h-3.631a.368.368,0,0,1,0-.736H526.6a.2.2,0,0,0,.2-.2v-1.572a.368.368,0,0,1,.736,0v1.572A.936.936,0,0,1,526.6,3112.7Z" transform="translate(-522.603 -3106.596)" fill="#fff"/>
      </g>
    </g>
  </g>
</svg>