<svg xmlns="http://www.w3.org/2000/svg" xmlns:xlink="http://www.w3.org/1999/xlink" viewBox="39 36 64 64">
  <defs>
    <linearGradient id="linear-gradient" x1="0.5" x2="0.5" y2="1" gradientUnits="objectBoundingBox">
      <stop offset="0" stop-color="#ff6976"/>
      <stop offset="1" stop-color="#ee2c3c"/>
    </linearGradient>
    <filter id="Path_3239" x="0" y="0" width="142" height="142" filterUnits="userSpaceOnUse">
      <feOffset dy="3" input="SourceAlpha"/>
      <feGaussianBlur stdDeviation="13" result="blur"/>
      <feFlood flood-opacity="0.071"/>
      <feComposite operator="in" in2="blur"/>
      <feComposite in="SourceGraphic"/>
    </filter>
  </defs>
  <g id="Group_3062" data-name="Group 3062" transform="translate(-1194 -1408.5)">
    <g transform="matrix(1, 0, 0, 1, 1194, 1408.5)" filter="url(#Path_3239)">
      <path id="Path_3239-2" data-name="Path 3239" d="M11,0H53A11,11,0,0,1,64,11V53A11,11,0,0,1,53,64H11A11,11,0,0,1,0,53V11A11,11,0,0,1,11,0Z" transform="translate(39 36)" fill="url(#linear-gradient)"/>
    </g>
    <g id="Group_3022" data-name="Group 3022" transform="translate(577 569.536)">
      <rect id="Rectangle_691" data-name="Rectangle 691" width="50" height="50" transform="translate(663 881)" fill="none"/>
      <g id="Group_3021" data-name="Group 3021" transform="translate(667.118 889.823)">
        <path id="Path_3266" data-name="Path 3266" d="M2241.4,1225.409a14.252,14.252,0,0,0-13.285-3.673,1.851,1.851,0,0,0-1.439,1.848l.508,20.271a1.845,1.845,0,0,0,1.906,1.8c3.211-.11,9.705.159,12.31,3.829Z" transform="translate(-2222.229 -1221.343)" fill="none" stroke="#fff" stroke-linecap="round" stroke-width="1"/>
        <path id="Path_3267" data-name="Path 3267" d="M2220.53,1278.7h-27.77a1.76,1.76,0,0,1-1.76-1.76v-21.22a1.76,1.76,0,0,1,1.76-1.76h2.1" transform="translate(-2191 -1249.89)" fill="none" stroke="#fff" stroke-linecap="round" stroke-width="1"/>
        <path id="Path_3268" data-name="Path 3268" d="M2469.725,1253.956h1.976a1.76,1.76,0,0,1,1.76,1.76v17.889" transform="translate(-2434.975 -1249.89)" fill="none" stroke="#fff" stroke-linecap="round" stroke-width="1"/>
        <path id="Path_3269" data-name="Path 3269" d="M2439.307,1411.545l2.132-3.8a.156.156,0,0,1,.271,0l2.171,3.807a.156.156,0,0,0,.2.063l2.742-1.354a.156.156,0,0,1,.222.171l-1.236,6a.156.156,0,0,1-.153.125h-8.223a.157.157,0,0,1-.153-.126l-1.188-6.109a.156.156,0,0,1,.226-.168l2.777,1.456A.156.156,0,0,0,2439.307,1411.545Z" transform="translate(-2405.535 -1384.435)" fill="none" stroke="#fff" stroke-linecap="round" stroke-width="1"/>
        <g id="Group_3019" data-name="Group 3019" transform="translate(19.949 13.674)">
          <path id="Path_3270" data-name="Path 3270" d="M2351,1331.9s7.48-1.349,11.719-.7" transform="translate(-2351 -1331.02)" fill="none" stroke="#fff" stroke-linecap="round" stroke-width="1"/>
          <path id="Path_3271" data-name="Path 3271" d="M2351,1354.483s7.48-1.349,11.719-.7" transform="translate(-2351 -1350.789)" fill="none" stroke="#fff" stroke-linecap="round" stroke-width="1"/>
          <path id="Path_3272" data-name="Path 3272" d="M2351,1380.831s7.48-1.349,11.719-.7" transform="translate(-2351 -1373.852)" fill="none" stroke="#fff" stroke-linecap="round" stroke-width="1"/>
        </g>
        <g id="Group_3020" data-name="Group 3020" transform="translate(7.481 5.071)">
          <path id="Path_3273" data-name="Path 3273" d="M2262.719,1262.9s-7.48-1.349-11.719-.7" transform="translate(-2251 -1262.02)" fill="none" stroke="#fff" stroke-linecap="round" stroke-width="1"/>
          <path id="Path_3274" data-name="Path 3274" d="M2262.719,1285.483s-7.48-1.349-11.719-.7" transform="translate(-2251 -1281.788)" fill="none" stroke="#fff" stroke-linecap="round" stroke-width="1"/>
          <path id="Path_3275" data-name="Path 3275" d="M2262.719,1311.83s-7.48-1.349-11.719-.7" transform="translate(-2251 -1304.851)" fill="none" stroke="#fff" stroke-linecap="round" stroke-width="1"/>
        </g>
        <path id="Path_3276" data-name="Path 3276" d="M2345.91,1225.409a14.252,14.252,0,0,1,13.285-3.673,1.852,1.852,0,0,1,1.439,1.848l-.508,20.271a1.846,1.846,0,0,1-1.906,1.8c-3.211-.11-9.705.159-12.31,3.829Z" transform="translate(-2326.596 -1221.343)" fill="none" stroke="#fff" stroke-linecap="round" stroke-width="1"/>
      </g>
    </g>
  </g>
</svg>