<svg xmlns="http://www.w3.org/2000/svg" xmlns:xlink="http://www.w3.org/1999/xlink" viewBox="39 36 64 64">
  <defs>
    <linearGradient id="linear-gradient" x1="0.5" x2="0.5" y2="1" gradientUnits="objectBoundingBox">
      <stop offset="0" stop-color="#ff6976"/>
      <stop offset="1" stop-color="#ee2c3c"/>
    </linearGradient>
    <filter id="Path_3238" x="0" y="0" width="142" height="142" filterUnits="userSpaceOnUse">
      <feOffset dy="3" input="SourceAlpha"/>
      <feGaussianBlur stdDeviation="13" result="blur"/>
      <feFlood flood-opacity="0.071"/>
      <feComposite operator="in" in2="blur"/>
      <feComposite in="SourceGraphic"/>
    </filter>
  </defs>
  <g id="Group_3060" data-name="Group 3060" transform="translate(-522.084 -1408)">
    <g transform="matrix(1, 0, 0, 1, 522.08, 1408)" filter="url(#Path_3238)">
      <path id="Path_3238-2" data-name="Path 3238" d="M11,0H53A11,11,0,0,1,64,11V53A11,11,0,0,1,53,64H11A11,11,0,0,1,0,53V11A11,11,0,0,1,11,0Z" transform="translate(39 36)" fill="url(#linear-gradient)"/>
    </g>
    <g id="Group_3008" data-name="Group 3008" transform="translate(121 569.536)">
      <rect id="Rectangle_687" data-name="Rectangle 687" width="50" height="50" transform="translate(447 881)" fill="none"/>
      <g id="Group_3007" data-name="Group 3007" transform="translate(451.706 887.293)">
        <path id="Path_3243" data-name="Path 3243" d="M930.723,1321.652v2.771a5,5,0,0,1-5,5h-.366a5,5,0,0,1-5-5v-2.771a1.8,1.8,0,0,1,1.8-1.8l1.774.343a8.547,8.547,0,0,0,3.277-.006l1.709-.337A1.8,1.8,0,0,1,930.723,1321.652Z" transform="translate(-913.57 -1304.349)" fill="none" stroke="#fff" stroke-linecap="round" stroke-width="1"/>
        <path id="Path_3244" data-name="Path 3244" d="M899.438,1253.876c-6.993-9.171,3.563-10.16,5.08-10.292a6.041,6.041,0,0,0,3.141-1.871,1.07,1.07,0,0,1,1.724.323c.778,1.731,1.269,4.568-3.479,5.111" transform="translate(-892.642 -1233.885)" fill="none" stroke="#fff" stroke-linecap="round" stroke-width="1"/>
        <path id="Path_3245" data-name="Path 3245" d="M1022.15,1278.4s5.74-6.664.066-9.764" transform="translate(-1004.996 -1258.345)" fill="none" stroke="#fff" stroke-linecap="round" stroke-width="1"/>
        <path id="Path_3246" data-name="Path 3246" d="M867.437,1428.77H869.5a8.1,8.1,0,0,1,8.1,8.1v2.453H853.589v-2.453a8.1,8.1,0,0,1,8.1-8.1h1.859" transform="translate(-853.589 -1402.182)" fill="none" stroke="#fff" stroke-linecap="round" stroke-width="1"/>
        <g id="Group_3003" data-name="Group 3003" transform="translate(10.061 24.794)">
          <line id="Line_199" data-name="Line 199" y2="1.795" transform="translate(0 0)" fill="none" stroke="#fff" stroke-linecap="round" stroke-width="1"/>
          <line id="Line_200" data-name="Line 200" y2="1.795" transform="translate(3.827 0)" fill="none" stroke="#fff" stroke-linecap="round" stroke-width="1"/>
        </g>
        <path id="Path_3247" data-name="Path 3247" d="M937.012,1428.77l1.867,3.675-3.6,2v-5.674Z" transform="translate(-926.963 -1402.182)" fill="none" stroke="#fff" stroke-linecap="round" stroke-width="1"/>
        <path id="Path_3248" data-name="Path 3248" d="M973.059,1428.77l-1.867,3.675,3.6,2v-5.674Z" transform="translate(-959.224 -1402.182)" fill="none" stroke="#fff" stroke-linecap="round" stroke-width="1"/>
        <g id="Group_3004" data-name="Group 3004" transform="translate(4.058 34.637)">
          <line id="Line_201" data-name="Line 201" y1="2.507" transform="translate(0 0)" fill="none" stroke="#fff" stroke-linecap="round" stroke-width="1"/>
          <line id="Line_202" data-name="Line 202" y1="2.507" transform="translate(15.9 0)" fill="none" stroke="#fff" stroke-linecap="round" stroke-width="1"/>
        </g>
        <line id="Line_203" data-name="Line 203" x1="9.19" transform="translate(22.862 28.172)" fill="none" stroke="#fff" stroke-linecap="round" stroke-width="1"/>
        <path id="Path_3249" data-name="Path 3249" d="M955.374,1175.417v-6.551a1.367,1.367,0,0,1,1.367-1.366h27.088a1.367,1.367,0,0,1,1.366,1.366v25.439a1.366,1.366,0,0,1-1.366,1.366" transform="translate(-945.016 -1167.5)" fill="none" stroke="#fff" stroke-linecap="round" stroke-width="1"/>
        <line id="Line_204" data-name="Line 204" x2="29.821" transform="translate(10.358 5.869)" fill="none" stroke="#fff" stroke-linecap="round" stroke-width="1"/>
        <rect id="Rectangle_688" data-name="Rectangle 688" width="15.702" height="5.542" rx="2.771" transform="translate(22.077 8.609)" fill="none" stroke="#fff" stroke-linecap="round" stroke-width="1"/>
        <line id="Line_205" data-name="Line 205" x2="10.647" transform="translate(22.077 16.419)" fill="none" stroke="#fff" stroke-linecap="round" stroke-width="1"/>
        <line id="Line_206" data-name="Line 206" x2="6.821" transform="translate(22.077 18.97)" fill="none" stroke="#fff" stroke-linecap="round" stroke-width="1"/>
        <g id="Group_3006" data-name="Group 3006" transform="translate(33.186 16.028)">
          <line id="Line_207" data-name="Line 207" x2="4.09" transform="translate(0 17.679)" fill="none" stroke="#fff" stroke-linecap="round" stroke-width="1"/>
          <g id="Group_3005" data-name="Group 3005" transform="translate(0 0)">
            <path id="Path_3250" data-name="Path 3250" d="M1183.711,1346.111h-3.944a.073.073,0,0,1-.073-.073v-17.726a.073.073,0,0,1,.011-.038l1.972-3.239a.073.073,0,0,1,.125,0l1.972,3.239a.073.073,0,0,1,.011.038v17.726A.073.073,0,0,1,1183.711,1346.111Z" transform="translate(-1179.694 -1325)" fill="none" stroke="#fff" stroke-linecap="round" stroke-width="1"/>
            <line id="Line_208" data-name="Line 208" x2="1.89" transform="translate(1.1 3.511)" fill="none" stroke="#fff" stroke-linecap="round" stroke-width="1"/>
            <line id="Line_209" data-name="Line 209" y2="10.589" transform="translate(2.045 6.87)" fill="none" stroke="#fff" stroke-linecap="round" stroke-width="1"/>
          </g>
        </g>
        <path id="Path_3251" data-name="Path 3251" d="M25.24,3.482H36.229" transform="translate(-11.931)" fill="none" stroke="#fff" stroke-linecap="round" stroke-width="1"/>
      </g>
    </g>
  </g>
</svg>