<svg xmlns="http://www.w3.org/2000/svg" xmlns:xlink="http://www.w3.org/1999/xlink" viewBox="57 54 42 41">
  <defs>
    <linearGradient id="linear-gradient" x1="0.1" y1="0.095" x2="0.925" y2="0.918" gradientUnits="objectBoundingBox">
      <stop offset="0" stop-color="#ff6976"/>
      <stop offset="1" stop-color="#ee2c3c"/>
    </linearGradient>
    <filter id="Rectangle_128" x="0" y="0" width="156" height="155" filterUnits="userSpaceOnUse">
      <feOffset dy="3" input="SourceAlpha"/>
      <feGaussianBlur stdDeviation="19" result="blur"/>
      <feFlood flood-color="#737373" flood-opacity="0.051"/>
      <feComposite operator="in" in2="blur"/>
      <feComposite in="SourceGraphic"/>
    </filter>
  </defs>
  <g id="Group_3069" data-name="Group 3069" transform="translate(-926 -370)">
    <g transform="matrix(1, 0, 0, 1, 926, 370)" filter="url(#Rectangle_128)">
      <rect id="Rectangle_128-2" data-name="Rectangle 128" width="42" height="41" rx="10" transform="translate(57 54)" fill="url(#linear-gradient)"/>
    </g>
    <g id="Group_3068" data-name="Group 3068" transform="translate(-5249.838 -898.18)">
      <path id="Path_3340" data-name="Path 3340" d="M6264.514,1350.936c.232,0,.416,0,.6,0a.324.324,0,0,1,.358.31,3.537,3.537,0,0,1-.205,1.751,2.214,2.214,0,0,1-1.915,1.293c-.1.008-.205.007-.308.007q-9.384,0-18.767,0a2.264,2.264,0,0,1-2.254-1.4,3.6,3.6,0,0,1-.161-1.668c.007-.2.165-.3.366-.3.183,0,.365,0,.589,0v-.422q0-5.922,0-11.845a1.643,1.643,0,0,1,.919-1.637,2.588,2.588,0,0,1,.8-.18,5.192,5.192,0,0,1,.662-.006c.02-.04.037-.059.034-.074a1.455,1.455,0,0,1,.9-1.9q3.194-1.686,6.382-3.382a2.323,2.323,0,0,1,2.294-.013q.435.228.868.462a.346.346,0,1,1-.324.608c-.31-.16-.615-.328-.928-.482a1.587,1.587,0,0,0-1.507,0q-3.332,1.755-6.656,3.523a.7.7,0,0,0-.42.66.712.712,0,0,0,.435.653l6.572,3.483a1.6,1.6,0,0,0,1.534.051c.565-.283,1.122-.586,1.717-.9l-1.313-1.5c-.426-.486-.849-.974-1.278-1.456-.168-.188-.264-.38-.061-.592.154-.16.368-.11.576.127.84.954,1.682,1.907,2.511,2.87a.308.308,0,0,0,.461.082c1.335-.719,2.676-1.427,4.018-2.133a.76.76,0,0,0,.49-.682.742.742,0,0,0-.47-.694q-2.161-1.142-4.315-2.293a.532.532,0,0,1-.265-.268.375.375,0,0,1,.107-.341.518.518,0,0,1,.419-.014c.778.39,1.545.8,2.315,1.21.6.316,1.2.629,1.792.951,1.04.562,1.2.872,1.029,2.02.347.019.7.013,1.037.062a1.578,1.578,0,0,1,1.36,1.516c.015.307.008.615.008.923q0,5.584,0,11.168Zm-5.4-11.76c0,.441.009.859,0,1.277a3.092,3.092,0,0,1-1.74,2.865.608.608,0,0,0-.379.735.829.829,0,0,0,.107.282c.165.3.319.6.51.876a1.085,1.085,0,0,1-1.005,1.735,1.059,1.059,0,0,1-.968-1.661c.185-.331.391-.651.562-.989a2.8,2.8,0,0,0,.139-.548l-.352.089a8.928,8.928,0,0,1-5.868-.431,2.849,2.849,0,0,1-1.729-1.96,11.5,11.5,0,0,1-.175-1.824c-.012-.148-.015-.3-.021-.435h-3.061v10.132c.471,0,.92,0,1.369,0,.252,0,.437.091.43.363-.007.255-.19.335-.427.333-.513,0-1.025,0-1.538,0-.463,0-.542-.078-.542-.532q0-5.246,0-10.491c0-.437.087-.526.521-.528.779,0,1.559,0,2.338,0,.094,0,.188-.013.281-.02a2.7,2.7,0,0,0-.4-.273,3.745,3.745,0,0,0-2.557-.637c-.749.055-1.109.373-1.109,1.127q0,5.969,0,11.938v.312h20.3a1.168,1.168,0,0,0,.015-.118q0-6.138,0-12.276a.931.931,0,0,0-.945-.968c-.286-.014-.577.024-.86-.01-.914-.111-1.514.544-2.261.838.007.029.014.058.02.088h2.542c.516,0,.586.071.586.587q0,5.184,0,10.368c0,.54-.057.6-.6.6h-14.06c-.436,0-.6-.1-.6-.346s.173-.348.6-.348H6262.2v-10.143Zm-16.555,12.457a1.6,1.6,0,0,0,.884,1.809,2.429,2.429,0,0,0,.928.151q9.289.012,18.579.006c.113,0,.226,0,.338-.007a1.574,1.574,0,0,0,1.472-1.936c-.074-.007-.154-.022-.233-.022q-3.875,0-7.751,0a.3.3,0,0,0-.327.235,1.611,1.611,0,0,1-1.61,1.1c-.8,0-1.6.008-2.4,0a1.548,1.548,0,0,1-1.527-1.032.411.411,0,0,0-.472-.3q-3.768.01-7.536,0Zm13.745-11.418c-.561.294-1.063.563-1.572.822a2.214,2.214,0,0,1-2.123,0c-1.145-.594-2.282-1.2-3.422-1.8-.076-.04-.157-.071-.266-.119,0,.513-.014.984,0,1.453a2.3,2.3,0,0,0,1.284,2.092,7.512,7.512,0,0,0,1.735.589,8.087,8.087,0,0,0,4.1-.154c.132-.039.269-.057.266-.267C6256.3,1341.982,6256.3,1341.132,6256.3,1340.215Zm.686,2.527a2.48,2.48,0,0,0,1.024-.9c.567-.841.357-1.782.4-2.751-.482.255-.906.476-1.325.707a.231.231,0,0,0-.1.17C6256.987,1340.88,6256.989,1341.789,6256.989,1342.742Zm-1.2,8.924h-4.22a.86.86,0,0,0,.837.6c.839.011,1.678.009,2.516,0A.924.924,0,0,0,6255.786,1351.666Zm.858-6.728c-.153.261-.286.489-.42.716-.1.177-.139.412.048.484a1.16,1.16,0,0,0,.715.018c.194-.062.178-.3.081-.479C6256.943,1345.444,6256.806,1345.217,6256.645,1344.938Z" transform="translate(0 0)" fill="#fff"/>
      <path id="Path_3341" data-name="Path 3341" d="M6315.627,1600.419c-1.116,0-2.233.007-3.349-.007a.619.619,0,0,1-.418-.176.314.314,0,0,1,.22-.491,1.531,1.531,0,0,1,.306-.014h6.636c.225,0,.389.1.391.337,0,.256-.167.352-.406.352Z" transform="translate(-65.652 -252.022)" fill="#fff"/>
      <path id="Path_3342" data-name="Path 3342" d="M6314.676,1576.694c-.738,0-1.476,0-2.213,0-.235,0-.441-.032-.462-.323-.016-.235.144-.362.46-.362q2.2,0,4.4,0c.243,0,.444.07.446.347s-.2.342-.444.341C6316.131,1576.691,6315.4,1576.694,6314.676,1576.694Z" transform="translate(-65.843 -229.761)" fill="#fff"/>
    </g>
  </g>
</svg>