<svg xmlns="http://www.w3.org/2000/svg" xmlns:xlink="http://www.w3.org/1999/xlink" viewBox="57 54 42 41">
  <defs>
    <linearGradient id="linear-gradient" x1="0.1" y1="0.095" x2="0.925" y2="0.918" gradientUnits="objectBoundingBox">
      <stop offset="0" stop-color="#ff6976"/>
      <stop offset="1" stop-color="#ee2c3c"/>
    </linearGradient>
    <filter id="Rectangle_128" x="0" y="0" width="156" height="155" filterUnits="userSpaceOnUse">
      <feOffset dy="3" input="SourceAlpha"/>
      <feGaussianBlur stdDeviation="19" result="blur"/>
      <feFlood flood-color="#737373" flood-opacity="0.051"/>
      <feComposite operator="in" in2="blur"/>
      <feComposite in="SourceGraphic"/>
    </filter>
  </defs>
  <g id="Mentoring" transform="translate(-925.719 -301.47)">
    <g transform="matrix(1, 0, 0, 1, 925.72, 301.47)" filter="url(#Rectangle_128)">
      <rect id="Rectangle_128-2" data-name="Rectangle 128" width="42" height="41" rx="10" transform="translate(57 54)" fill="url(#linear-gradient)"/>
    </g>
    <path id="Path_3314" data-name="Path 3314" d="M3414.712,1229.867a4.08,4.08,0,0,0-1.767-3.487c-1.107-.783-2.24-1.531-3.369-2.285a2.981,2.981,0,0,0-1.931-.448,2.448,2.448,0,0,0-.536-1.893,2.542,2.542,0,0,0-1.68-.993,2.308,2.308,0,0,0-2.388,1.472,2.567,2.567,0,0,0,1.618,3.173c-.078.067-.144.13-.217.186-.922.7-1.849,1.387-2.766,2.091-.19.146-.335.348-.512.513a.584.584,0,0,1-.25.137c-.193.047-.4.047-.587.11-.663.223-1.318.466-1.977.7-.32.113-.642.22-.991.34.417-1.909-.373-2.818-1.3-3.214a2.262,2.262,0,0,0-2.709.808,2.59,2.59,0,0,0-.409,1.729,2.451,2.451,0,0,1-.145,4.228q0,2.318,0,4.637h0v.453c0,.055,0,.11,0,.165l0,4.844h0q0,.731,0,1.462c0,.452.185.627.646.629.647,0,1.294,0,1.941,0,.56,0,.7-.135.7-.691,0-1.411,0-2.822.005-4.233,0-.115.029-.285.106-.336.494-.322,1-.618,1.57-.959v.4q0,2.546,0,5.092c0,.58.152.729.739.729h15.464c.6,0,.751-.145.751-.748v-9.643C3414.715,1233.176,3414.723,1231.521,3414.712,1229.867Zm-10.807-6.84a1.3,1.3,0,0,1,1.265-1.287,1.659,1.659,0,0,1,1.492,1.473,1.278,1.278,0,0,1-1.266,1.279A1.626,1.626,0,0,1,3403.905,1223.026Zm-1.636,5.461c1.506-1.136,3.01-2.277,4.521-3.406a1.912,1.912,0,0,1,2.39-.046q1.11.743,2.215,1.493c.086.057.165.123.284.213l-2.279,1.835c-.568-.382-1.128-.745-1.67-1.131a.762.762,0,0,0-.805-.073c-1.428.592-2.86,1.177-4.29,1.766-.22.091-.439.15-.586-.1S3402.085,1228.627,3402.269,1228.488Zm-.8,2.413a4.8,4.8,0,0,0,.559-.551c.05-.049.107-.131.158-.129a5.009,5.009,0,0,0,1.977-.634c.97-.368,1.92-.786,2.885-1.168a.47.47,0,0,1,.37.039c.544.347,1.079.711,1.61,1.079a1.654,1.654,0,0,1,.757,1.4c.012,1.208,0,2.417,0,3.626a.574.574,0,0,1-.025.1c-.034.009-.045.015-.054.014a2.389,2.389,0,0,0-1.966.733c-1.226.995-2.479,1.957-3.748,2.9a5.369,5.369,0,0,1-1.147.528c-.574.24-1.153.466-1.78.718-.008-.151-.02-.261-.02-.371,0-.689-.028-1.38,0-2.067A2.256,2.256,0,0,0,3397.8,1235c-.045.023-.093.04-.193.083,0-.5-.013-.958.011-1.418,0-.095.138-.2.235-.269C3399.059,1232.561,3400.269,1231.74,3401.466,1230.9Zm-7.513-2.39a1.262,1.262,0,0,1,.825-1.325,1.226,1.226,0,0,1,1.443.433,1.549,1.549,0,0,1,.075,1.687,1.174,1.174,0,0,1-1.228.618A1.272,1.272,0,0,1,3393.953,1228.511Zm-.164,7.743c0-.594,0-1.188,0-1.782,0-.531,0-1.061,0-1.591a1.28,1.28,0,0,1,.941-1.382c1.962-.709,3.929-1.406,5.894-2.106.2-.073.406-.084.519.15s-.015.381-.2.506c-1.267.87-2.525,1.755-3.806,2.6a1.029,1.029,0,0,0-.535,1.018c.037.624.019,1.252,0,1.877,0,.121-.119.24-.184.359,0,.008-.019.01-.026.018a2.856,2.856,0,0,1-2.4.6C3393.792,1236.521,3393.788,1236.4,3393.789,1236.254Zm4.125,1.492c-.73.431-1.452.875-2.186,1.3a1.211,1.211,0,0,0-.643,1.153c.01,1.23,0,2.461,0,3.692,0,.111-.01.222-.015.329h-1.282c0-.367,0-.729,0-1.089h0l0-5.055c0-.012,0-.023,0-.035v-.032h0q0-.124-.006-.249c-.008-.183.07-.24.246-.237.487.007.977.019,1.463-.006a1.249,1.249,0,0,0,.587-.179c.678-.435,1.33-.911,2.008-1.345a1.238,1.238,0,0,1,1.956,1.041c.018.9.006,1.8,0,2.705,0,.077-.018.2-.065.224-.388.175-.784.331-1.23.514,0-.8,0-1.524,0-2.244C3398.75,1237.676,3398.389,1237.466,3397.914,1237.746Zm15.787,6.474h-14.928c-.006-.1-.018-.206-.018-.308,0-.679.01-1.358-.007-2.036a.393.393,0,0,1,.3-.439q2.512-.991,5.013-2.007a2.375,2.375,0,0,0,.545-.316c1.4-1.078,2.8-2.167,4.209-3.238a1.025,1.025,0,0,1,.57-.193c1.315-.017,2.629-.009,3.945-.009h.371Zm.021-9.556h-.916v-.331c0-1.093,0-2.185,0-3.278,0-.484-.4-.777-.737-.531a.714.714,0,0,0-.243.5c-.022,1.092-.011,2.185-.011,3.278v.364H3410.8c-.006-.1-.018-.216-.018-.328,0-.923-.015-1.846,0-2.769a3.138,3.138,0,0,0-.617-2.32l2.374-1.913a2.779,2.779,0,0,1,1.121,2.029c.069,1.206.046,2.416.058,3.625C3413.726,1233.54,3413.722,1234.09,3413.722,1234.664Z" transform="translate(-2400.038 -857.015)" fill="#fff"/>
  </g>
</svg>