<svg xmlns="http://www.w3.org/2000/svg" xmlns:xlink="http://www.w3.org/1999/xlink" viewBox="57 54 42 41">
  <defs>
    <linearGradient id="linear-gradient" x1="0.1" y1="0.095" x2="0.925" y2="0.918" gradientUnits="objectBoundingBox">
      <stop offset="0" stop-color="#ff6976"/>
      <stop offset="1" stop-color="#ee2c3c"/>
    </linearGradient>
    <filter id="Rectangle_129" x="0" y="0" width="156" height="155" filterUnits="userSpaceOnUse">
      <feOffset dy="3" input="SourceAlpha"/>
      <feGaussianBlur stdDeviation="19" result="blur"/>
      <feFlood flood-color="#737373" flood-opacity="0.051"/>
      <feComposite operator="in" in2="blur"/>
      <feComposite in="SourceGraphic"/>
    </filter>
  </defs>
  <g id="Outcome_Based_" data-name="Outcome Based " transform="translate(-1540 -453)">
    <g transform="matrix(1, 0, 0, 1, 1540, 453)" filter="url(#Rectangle_129)">
      <rect id="Rectangle_129-2" data-name="Rectangle 129" width="42" height="41" rx="10" transform="translate(57 54)" fill="url(#linear-gradient)"/>
    </g>
    <g id="Group_3051" data-name="Group 3051" transform="translate(-1488.925 -119.951)">
      <path id="Path_3312" data-name="Path 3312" d="M3116.215,647.874c.161,0,.277,0,.392,0a1.3,1.3,0,0,1,1.341,1.352q0,3.974,0,7.947,0,2.5,0,5a1.333,1.333,0,0,1-1.442,1.437q-3.092,0-6.184,0h-.391c-.033.124-.056.234-.09.341a1.31,1.31,0,0,1-1.276.943c-1.127,0-2.254,0-3.381,0a1.312,1.312,0,0,1-1.388-1.095c-.014-.055-.031-.109-.054-.191h-6.5a1.35,1.35,0,0,1-1.519-1.506q0-6.343,0-12.687c0-1.055.466-1.527,1.525-1.545.057,0,.114-.006.209-.012v-.573c0-.627.1-.729.744-.73.993,0,1.985,0,2.977,0a.333.333,0,0,0,.374-.255,5.642,5.642,0,0,1,3-3.163,1.459,1.459,0,0,1,.244-.088.443.443,0,0,1,.541.265.417.417,0,0,1-.193.546c-.173.1-.363.177-.54.273a4.716,4.716,0,0,0-.3,8.175,1.959,1.959,0,0,1,1.039,1.878,1.173,1.173,0,0,0,.013.141h.994c.007-.089.019-.181.019-.273,0-1.339.006-2.678-.007-4.017a.7.7,0,0,0-.182-.42c-.283-.315-.6-.6-.892-.905-.241-.246-.269-.517-.079-.712a.475.475,0,0,1,.712.062c.293.292.576.594.888.916.167-.161.31-.3.451-.436.179-.176.35-.359.534-.528a.454.454,0,1,1,.636.645c-.3.313-.6.622-.921.918a.655.655,0,0,0-.218.531c.009,1.291,0,2.582,0,3.872v.356h1.029c0-.132,0-.262,0-.392a1.732,1.732,0,0,1,.854-1.512,4.75,4.75,0,0,0-.332-8.415c-.095-.047-.2-.082-.289-.133a.446.446,0,0,1-.227-.583.441.441,0,0,1,.577-.238,5.038,5.038,0,0,1,2.334,1.731,10.623,10.623,0,0,1,.873,1.52c.088.172.16.244.355.242,1.031-.009,2.062,0,3.092,0,.514,0,.647.136.648.652C3116.215,647.421,3116.215,647.631,3116.215,647.874Zm-.92,13.078V647.5h-2.807a.267.267,0,0,0-.028.07c0,.058,0,.115,0,.173a5.573,5.573,0,0,1-2.7,5.4,1.049,1.049,0,0,0-.533.977c.008.664.005,1.329,0,1.993a1.743,1.743,0,0,1-1.634,1.766l-.282.029v3.238a3.906,3.906,0,0,1,1.778-.2c1.945-.006,3.889,0,5.834,0ZM3098.368,647.5v13.448h.379c1.791,0,3.582-.011,5.372.005a5.7,5.7,0,0,1,2.233.18v-3.226c-.075-.009-.131-.021-.187-.022a1.777,1.777,0,0,1-1.728-1.857c.035-.643,0-1.29.007-1.935a1.017,1.017,0,0,0-.533-.946,5.5,5.5,0,0,1-2.7-4.308,13.328,13.328,0,0,1-.006-1.338Zm8.005,16.5c0-.4,0-.764,0-1.128,0-.7-.3-.994-1-.995h-7.251c-.532,0-.661-.131-.661-.668q0-6.038,0-12.075V648.8c-.676-.092-.838.046-.838.684v12.509c0,.608.087.693.7.693q3.178,0,6.355,0a.911.911,0,0,1,1.013.88.426.426,0,0,0,.447.43C3105.534,664.01,3105.928,664,3106.374,664Zm9.841-15.229V661.2c0,.552-.125.677-.681.677h-7.164c-.116,0-.232,0-.346.008a.761.761,0,0,0-.692.6c-.039.493-.01.992-.01,1.508.434,0,.847.014,1.258-.006a.4.4,0,0,0,.392-.358c.125-.722.4-.947,1.127-.947h6.3c.553,0,.656-.1.656-.655q0-5.662,0-11.324c0-.481.006-.963,0-1.444a.45.45,0,0,0-.483-.491C3116.462,648.767,3116.357,648.771,3116.215,648.771Zm-7.9,6.547h-2.967c0,.308-.013.587,0,.864a.807.807,0,0,0,.807.778c.451.011.9.01,1.354,0a.786.786,0,0,0,.8-.69A8.882,8.882,0,0,0,3108.314,655.317Z" transform="translate(0 -5.924)" fill="#fff"/>
      <path id="Path_3313" data-name="Path 3313" d="M3280.546,636.75a.446.446,0,1,1-.454.455A.458.458,0,0,1,3280.546,636.75Z" transform="translate(-173.712)" fill="#fff"/>
    </g>
  </g>
</svg>