<svg xmlns="http://www.w3.org/2000/svg" xmlns:xlink="http://www.w3.org/1999/xlink" viewBox="57 54 42 41">
  <defs>
    <linearGradient id="linear-gradient" x1="0.1" y1="0.095" x2="0.925" y2="0.918" gradientUnits="objectBoundingBox">
      <stop offset="0" stop-color="#ff6976"/>
      <stop offset="1" stop-color="#ee2c3c"/>
    </linearGradient>
    <filter id="Rectangle_128" x="0" y="0" width="156" height="155" filterUnits="userSpaceOnUse">
      <feOffset dy="3" input="SourceAlpha"/>
      <feGaussianBlur stdDeviation="19" result="blur"/>
      <feFlood flood-color="#737373" flood-opacity="0.051"/>
      <feComposite operator="in" in2="blur"/>
      <feComposite in="SourceGraphic"/>
    </filter>
  </defs>
  <g id="Student_Analytics" data-name="Student Analytics" transform="translate(-923 -301)">
    <g transform="matrix(1, 0, 0, 1, 923, 301)" filter="url(#Rectangle_128)">
      <rect id="Rectangle_128-2" data-name="Rectangle 128" width="42" height="41" rx="10" transform="translate(57 54)" fill="url(#linear-gradient)"/>
    </g>
    <g id="Group_3046" data-name="Group 3046" transform="translate(-680.783 297.398)">
      <path id="Path_3302" data-name="Path 3302" d="M1681.544,209.975h-10.052c-.084,0-.168,0-.252,0a.448.448,0,0,1-.457-.464.461.461,0,0,1,.433-.463c.458-.053.458-.053.458-.527q0-2.114,0-4.228c0-.474.147-.624.613-.625q1.176,0,2.352,0c.51,0,.652.14.653.642,0,1.475.006,2.949-.005,4.424,0,.245.063.329.313.316a10.507,10.507,0,0,1,1.147,0c.257.014.308-.083.307-.321q-.011-4.382,0-8.764c0-.1,0-.206,0-.308a.441.441,0,0,1,.461-.459q1.344-.011,2.688,0c.309,0,.466.194.466.539q0,1.792,0,3.584c0,1.8.005,3.6-.006,5.4,0,.265.081.337.333.324a10.874,10.874,0,0,1,1.119,0c.244.013.318-.06.317-.311-.009-2.333-.006-4.666-.005-7,0-.093,0-.187,0-.28a.447.447,0,0,1,.45-.472q1.358-.015,2.716,0c.292,0,.448.2.449.53,0,1.036,0,2.072,0,3.108,0,1.363.008,2.725-.006,4.088,0,.276.083.353.348.337a9.626,9.626,0,0,1,1.091,0c.256.014.332-.065.331-.326-.01-2.408-.006-4.816-.006-7.224q0-2.632,0-5.264c0-.489.143-.632.634-.633q1.19,0,2.38,0c.45,0,.6.155.6.606q0,6.23,0,12.46c0,.276.045.406.36.383a.453.453,0,0,1,.536.467c0,.29-.2.456-.55.456Zm7.191-13.428v.34q0,5.875,0,11.751c0,.389,0,.389.4.389.345,0,.691-.014,1.035,0,.257.014.329-.073.328-.332q-.012-5.931-.006-11.862c0-.1-.01-.2-.015-.29Zm-10.753,8.038c0,1.39,0,2.781,0,4.171,0,.209.063.281.271.275.41-.012.821-.013,1.232,0,.217.007.27-.083.263-.282-.013-.363,0-.728,0-1.092,0-2.408,0-4.815.005-7.223,0-.247-.066-.327-.314-.314a10.547,10.547,0,0,1-1.147,0c-.259-.015-.308.085-.307.322C1677.986,201.823,1677.981,203.2,1677.981,204.585Zm7.135-2.653h-1.727a.215.215,0,0,0-.019.047q-.006,3.425-.013,6.85c0,.172.09.2.229.2.391,0,.784-.016,1.174.005.275.015.365-.061.364-.354-.013-2.144-.007-4.287-.007-6.431Zm-12.487,2.679a.8.8,0,0,0-.022.125c0,1.36,0,2.72-.005,4.08,0,.188.095.214.244.213.4,0,.8-.012,1.2,0,.236.009.323-.055.321-.31-.013-1.285-.006-2.571-.007-3.856,0-.081-.011-.162-.018-.254Z" transform="translate(0 -120.83)" fill="#fff"/>
      <path id="Path_3303" data-name="Path 3303" d="M1703.608,71.006c-.052.047-.109.094-.161.146-.852.851-1.7,1.706-2.557,2.55a.309.309,0,0,0-.078.407,1.8,1.8,0,0,1-.863,2.307,1.769,1.769,0,0,1-2.338-.685,3.014,3.014,0,0,1-.267-1.007c-.026-.164-.056-.238-.224-.282-.523-.136-1.042-.289-1.558-.447a.3.3,0,0,0-.377.118,1.773,1.773,0,0,1-2.334.445.235.235,0,0,0-.316.022q-1.188.957-2.386,1.9a.245.245,0,0,0-.081.333,1.809,1.809,0,1,1-2.915-.655,1.753,1.753,0,0,1,1.95-.337.374.374,0,0,0,.446-.054q1.16-.946,2.342-1.867a.328.328,0,0,0,.133-.419,1.809,1.809,0,1,1,3.54-.677c.015.149.044.235.2.278.593.16,1.181.342,1.777.493a.435.435,0,0,0,.336-.093,1.8,1.8,0,0,1,2-.339.24.24,0,0,0,.312-.063q1.3-1.312,2.615-2.611c.133-.131.1-.229.039-.366a1.81,1.81,0,1,1,1.19,1.054C1703.894,71.118,1703.757,71.06,1703.608,71.006Zm-8.967,1.977a.877.877,0,1,0-.853.895A.9.9,0,0,0,1694.641,72.983Zm9-3.565a.877.877,0,1,0,1.755-.016.877.877,0,0,0-1.755.016Zm-3.622,5.376a.877.877,0,0,0-1.755-.013.877.877,0,1,0,1.755.013Zm-12.508,2.678a.877.877,0,1,0,1.754.006.877.877,0,0,0-1.754-.006Z" transform="translate(-14.904)" fill="#fff"/>
    </g>
  </g>
</svg>