<svg xmlns="http://www.w3.org/2000/svg" xmlns:xlink="http://www.w3.org/1999/xlink" width="97" height="98" viewBox="0 0 97 98">
  <defs>
    <linearGradient id="linear-gradient" x1="0.5" x2="0.5" y2="1" gradientUnits="objectBoundingBox">
      <stop offset="0" stop-color="#ff6976"/>
      <stop offset="1" stop-color="#ee2c3c"/>
    </linearGradient>
  </defs>
  <g id="Students" transform="translate(-0.239 0.381)">
    <rect id="Rectangle_674" data-name="Rectangle 674" width="97" height="98" rx="12" transform="translate(0.239 -0.381)" fill="url(#linear-gradient)"/>
    <g id="Students-2" data-name="Students" transform="translate(8.576 8.576)">
      <g id="Group_2543" data-name="Group 2543" transform="translate(0 0)">
        <rect id="Rectangle_554" data-name="Rectangle 554" width="81" height="81" transform="translate(-0.335 0.043)" fill="none"/>
        <g id="Group_2540" data-name="Group 2540" transform="translate(18.103 9.528)">
          <g id="Group_2536" data-name="Group 2536">
            <path id="Path_2936" data-name="Path 2936" d="M1517.266,402.7l-12.73-6a.323.323,0,0,1-.021-.574l21.842-12.341a.323.323,0,0,1,.316,0l22.026,12.256a.323.323,0,0,1-.016.574l-13.072,6.338" transform="translate(-1504.351 -383.746)" fill="none" stroke="#fff" stroke-width="1.5"/>
            <path id="Path_2937" data-name="Path 2937" d="M1594.119,513.476v4.586a7.531,7.531,0,0,0,7.531,7.531h0a7.531,7.531,0,0,0,7.531-7.531v-4.586" transform="translate(-1579.605 -492.501)" fill="none" stroke="#fff" stroke-width="1.5"/>
            <path id="Path_2938" data-name="Path 2938" d="M1602.743,445.021v-4.8s-7.826-4.46-18.512,0V444.6" transform="translate(-1571.315 -429.432)" fill="none" stroke="#fff" stroke-width="1.5"/>
            <path id="Path_2939" data-name="Path 2939" d="M1590.308,471.659s-.064,5.89,10.192,4.291c0,0,1.757-1.767,1.084-5.385,0,0-5.554-3.871-18.513-.421,0,0-1.627,6.648,3.9,5.806A4.807,4.807,0,0,0,1590.308,471.659Z" transform="translate(-1570.156 -454.975)" fill="none" stroke="#fff" stroke-width="1.5"/>
            <g id="Group_2533" data-name="Group 2533" transform="translate(13.69 33.405)">
              <rect id="Rectangle_547" data-name="Rectangle 547" width="3.282" height="8.331" transform="translate(0 2.321) rotate(-45)" fill="none" stroke="#fff" stroke-width="1.5"/>
              <rect id="Rectangle_548" data-name="Rectangle 548" width="3.282" height="8.331" transform="translate(10.819 8.211) rotate(-135)" fill="none" stroke="#fff" stroke-width="1.5"/>
            </g>
            <path id="Path_2940" data-name="Path 2940" d="M1687.279,518.681a2.019,2.019,0,1,1,0,4.039" transform="translate(-1657.703 -496.864)" fill="none" stroke="#fff" stroke-width="1.5"/>
            <path id="Path_2941" data-name="Path 2941" d="M1583.648,518.681a2.019,2.019,0,0,0,0,4.039" transform="translate(-1569.134 -496.864)" fill="none" stroke="#fff" stroke-width="1.5"/>
            <g id="Group_2534" data-name="Group 2534" transform="translate(18.259 32.072)">
              <line id="Line_84" data-name="Line 84" y2="3.544" fill="none" stroke="#fff" stroke-width="1.5"/>
              <line id="Line_85" data-name="Line 85" y2="3.544" transform="translate(7.573)" fill="none" stroke="#fff" stroke-width="1.5"/>
            </g>
            <line id="Line_86" data-name="Line 86" y2="7.253" transform="translate(4.314 10.02)" fill="none" stroke="#fff" stroke-width="1.5"/>
            <rect id="Rectangle_549" data-name="Rectangle 549" width="2.626" height="5.217" rx="1.313" transform="translate(3.001 17.104)" fill="none" stroke="#fff" stroke-width="1.5"/>
            <path id="Path_2942" data-name="Path 2942" d="M1555.654,607.879a10.363,10.363,0,0,1,5.472-2.844" transform="translate(-1547.359 -569.256)" fill="none" stroke="#fff" stroke-width="1.5"/>
            <path id="Path_2943" data-name="Path 2943" d="M1692.236,605.1a10.364,10.364,0,0,1,5.4,2.819" transform="translate(-1661.859 -569.307)" fill="none" stroke="#fff" stroke-width="1.5"/>
            <g id="Group_2535" data-name="Group 2535" transform="translate(4.248 37.077)">
              <path id="Path_2944" data-name="Path 2944" d="M1530.625,627.708v4.064a.233.233,0,0,0,.149.217l17.416,6.753a.233.233,0,0,0,.317-.217V620.208a.233.233,0,0,0-.147-.216l-17.416-6.91a.233.233,0,0,0-.319.216v6.328" transform="translate(-1530.625 -613.065)" fill="none" stroke="#fff" stroke-width="1.5"/>
              <path id="Path_2945" data-name="Path 2945" d="M1659.1,628.03v3.742a.233.233,0,0,1-.149.217l-17.416,6.753a.233.233,0,0,1-.317-.217V620.208a.233.233,0,0,1,.147-.216l17.416-6.91a.233.233,0,0,1,.318.216v6.441" transform="translate(-1623.338 -613.065)" fill="none" stroke="#fff" stroke-width="1.5"/>
            </g>
          </g>
          <path id="Rectangle_550" data-name="Rectangle 550" d="M4.042,0h.583A1.621,1.621,0,0,1,6.247,1.621V6.463A1.621,1.621,0,0,1,4.625,8.084H4.042A4.042,4.042,0,0,1,0,4.042v0A4.042,4.042,0,0,1,4.042,0Z" transform="translate(36.484 43.857)" fill="none" stroke="#fff" stroke-width="1.5"/>
          <path id="Rectangle_551" data-name="Rectangle 551" d="M4.042,0h.583A1.621,1.621,0,0,1,6.247,1.621V6.463A1.621,1.621,0,0,1,4.625,8.084H4.042A4.042,4.042,0,0,1,0,4.042v0A4.042,4.042,0,0,1,4.042,0Z" transform="translate(7.807 51.78) rotate(-180)" fill="none" stroke="#fff" stroke-width="1.5"/>
        </g>
      </g>
    </g>
  </g>
</svg>
