<svg xmlns="http://www.w3.org/2000/svg" xmlns:xlink="http://www.w3.org/1999/xlink" viewBox="57 54 72 72">
  <defs>
    <linearGradient id="linear-gradient" x1="0.5" x2="0.5" y2="1" gradientUnits="objectBoundingBox">
      <stop offset="0" stop-color="#ff6976"/>
      <stop offset="1" stop-color="#ee2c3c"/>
    </linearGradient>
    <filter id="Path_2794" x="0" y="0" width="186" height="186" filterUnits="userSpaceOnUse">
      <feOffset dy="3" input="SourceAlpha"/>
      <feGaussianBlur stdDeviation="19" result="blur"/>
      <feFlood flood-color="#aeaeae" flood-opacity="0.188"/>
      <feComposite operator="in" in2="blur"/>
      <feComposite in="SourceGraphic"/>
    </filter>
  </defs>
  <g id="Group_3064" data-name="Group 3064" transform="translate(19 -171)">
    <g transform="matrix(1, 0, 0, 1, -19, 171)" filter="url(#Path_2794)">
      <path id="Path_2794-2" data-name="Path 2794" d="M16,0H56A16,16,0,0,1,72,16V56A16,16,0,0,1,56,72H16A16,16,0,0,1,0,56V16A16,16,0,0,1,16,0Z" transform="translate(57 54)" fill="url(#linear-gradient)"/>
    </g>
    <g id="Group_2573" data-name="Group 2573" transform="translate(23613.043 -2693.22)">
      <rect id="Rectangle_561" data-name="Rectangle 561" width="50.941" height="50.941" transform="translate(-23564.514 2928.75)" fill="none"/>
      <g id="Group_2568" data-name="Group 2568" transform="translate(-23560.037 2933.584)">
        <path id="Path_2916" data-name="Path 2916" d="M1481.445,1918.447h-1.671a1.775,1.775,0,0,1-1.775-1.775v-31.056a1.775,1.775,0,0,1,1.775-1.775h38.437a1.775,1.775,0,0,1,1.775,1.775v31.056a1.775,1.775,0,0,1-1.775,1.775h-1.573" transform="translate(-1478 -1883.841)" fill="none" stroke="#fff" stroke-linecap="round" stroke-width="1"/>
        <line id="Line_69" data-name="Line 69" x2="41.986" transform="translate(0 7.015)" fill="none" stroke="#fff" stroke-linecap="round" stroke-width="1"/>
        <rect id="Rectangle_538" data-name="Rectangle 538" width="8.529" height="1.765" rx="0.882" transform="translate(3.151 2.843)" fill="none" stroke="#fff" stroke-linecap="round" stroke-width="1"/>
        <rect id="Rectangle_539" data-name="Rectangle 539" width="5.196" height="1.765" rx="0.882" transform="translate(14.327 2.843)" fill="none" stroke="#fff" stroke-linecap="round" stroke-width="1"/>
        <g id="Group_2523" data-name="Group 2523" transform="translate(9.741 19.069)">
          <path id="Path_2918" data-name="Path 2918" d="M1588.884,2198.922h1.934a7.594,7.594,0,0,1,7.594,7.594v2.3h-22.5v-2.3a7.594,7.594,0,0,1,7.594-7.594h1.742" transform="translate(-1575.907 -2186.642)" fill="none" stroke="#fff" stroke-linecap="round" stroke-width="1"/>
          <g id="Group_2521" data-name="Group 2521" transform="translate(9.428 10.831)">
            <line id="Line_70" data-name="Line 70" y2="1.449" fill="none" stroke="#fff" stroke-linecap="round" stroke-width="1"/>
            <line id="Line_71" data-name="Line 71" y2="1.351" transform="translate(3.586 0.098)" fill="none" stroke="#fff" stroke-linecap="round" stroke-width="1"/>
          </g>
          <path id="Path_2919" data-name="Path 2919" d="M1655.828,2198.922l1.75,3.443-3.376,1.874v-5.317Z" transform="translate(-1646.412 -2186.642)" fill="none" stroke="#fff" stroke-linecap="round" stroke-width="1"/>
          <path id="Path_2920" data-name="Path 2920" d="M1690.376,2198.922l-1.749,3.443,3.376,1.874v-5.317Z" transform="translate(-1677.411 -2186.642)" fill="none" stroke="#fff" stroke-linecap="round" stroke-width="1"/>
          <g id="Group_2522" data-name="Group 2522" transform="translate(3.802 19.822)">
            <line id="Line_72" data-name="Line 72" y1="2.349" fill="none" stroke="#fff" stroke-linecap="round" stroke-width="1"/>
            <line id="Line_73" data-name="Line 73" y1="2.349" transform="translate(14.9)" fill="none" stroke="#fff" stroke-linecap="round" stroke-width="1"/>
          </g>
          <path id="Path_2921" data-name="Path 2921" d="M1639.56,2105.516v.741a.313.313,0,0,0,.265.31c.989.153,4.481.518,5.869-1.657a.314.314,0,0,1,.529-.011,3.232,3.232,0,0,0,2.771,1.657.314.314,0,0,0,.294-.314v-.526" transform="translate(-1633.227 -2101.848)" fill="none" stroke="#fff" stroke-linecap="round" stroke-width="1"/>
          <path id="Rectangle_540" data-name="Rectangle 540" d="M3.763,0h2.2A3.763,3.763,0,0,1,9.727,3.763V6.1a4.863,4.863,0,0,1-4.863,4.863h0A4.863,4.863,0,0,1,0,6.1V3.763A3.763,3.763,0,0,1,3.763,0Z" transform="translate(6.333)" fill="none" stroke="#fff" stroke-linecap="round" stroke-width="1"/>
        </g>
        <path id="Path_2917" data-name="Path 2917" d="M1558.774,2024.788v11.468a1.542,1.542,0,0,1-1.542,1.542h-29.268a1.542,1.542,0,0,1-1.542-1.542v-25.739a1.542,1.542,0,0,1,1.542-1.542h29.268a1.542,1.542,0,0,1,1.542,1.542v2.983" transform="translate(-1521.605 -1996.526)" fill="none" stroke="#fff" stroke-linecap="round" stroke-width="1"/>
        <g id="Group_2524" data-name="Group 2524" transform="translate(27.009 18.65)">
          <path id="Path_2922" data-name="Path 2922" d="M1749.689,2081.821l3.427-2.522a.142.142,0,0,1,.084-.028h9.2a.143.143,0,0,0,.143-.143v-7.7a.143.143,0,0,0-.143-.143h-11.153a.143.143,0,0,0-.143.143v6.356a.14.14,0,0,1-.011.056l-1.619,3.81A.143.143,0,0,0,1749.689,2081.821Z" transform="translate(-1749.461 -2071.286)" fill="none" stroke="#fff" stroke-linecap="round" stroke-width="1"/>
          <path id="Path_2923" data-name="Path 2923" d="M1813.571,2097v2.376a.167.167,0,0,0,.246.148l2.238-1.188a.167.167,0,0,0,0-.3l-2.238-1.188A.167.167,0,0,0,1813.571,2097Z" transform="translate(-1807.193 -2094.289)" fill="none" stroke="#fff" stroke-linecap="round" stroke-width="1"/>
        </g>
      </g>
    </g>
  </g>
</svg>