<svg xmlns="http://www.w3.org/2000/svg" xmlns:xlink="http://www.w3.org/1999/xlink" width="97" height="98" viewBox="0 0 97 98">
  <defs>
    <linearGradient id="linear-gradient" x1="0.5" x2="0.5" y2="1" gradientUnits="objectBoundingBox">
      <stop offset="0" stop-color="#ff6976"/>
      <stop offset="1" stop-color="#ee2c3c"/>
    </linearGradient>
  </defs>
  <g id="Universities" transform="translate(-0.346 0.381)">
    <rect id="Rectangle_674" data-name="Rectangle 674" width="97" height="98" rx="12" transform="translate(0.346 -0.381)" fill="url(#linear-gradient)"/>
    <g id="Group_2981" data-name="Group 2981" transform="translate(13.34 13.34)">
      <rect id="Rectangle_496" data-name="Rectangle 496" width="71" height="70" transform="translate(0.007 0.279)" fill="none"/>
      <path id="Path_2841" data-name="Path 2841" d="M364.418,479.354H343.257a.442.442,0,0,1-.442-.442v-31.53a.442.442,0,0,1,.193-.365l10.581-7.239a.442.442,0,0,1,.5,0l10.581,7.239a.442.442,0,0,1,.193.365v31.53A.442.442,0,0,1,364.418,479.354Z" transform="translate(-319.105 -422.815)" fill="none" stroke="#fff" stroke-width="1.5"/>
      <rect id="Rectangle_499" data-name="Rectangle 499" width="15.743" height="24.533" rx="1" transform="translate(45.729 32.006)" fill="none" stroke="#fff" stroke-width="1.5"/>
      <path id="Path_3230" data-name="Path 3230" d="M.836,0H14.96A.836.836,0,0,1,15.8.836V23.7a.836.836,0,0,1-.836.836H.836A.836.836,0,0,1,0,23.7V.836A.836.836,0,0,1,.836,0Z" transform="translate(7.957 32.006)" fill="none" stroke="#fff" stroke-width="1.5"/>
      <rect id="Rectangle_501" data-name="Rectangle 501" width="11.606" height="17.686" rx="1" transform="translate(29.27 38.853)" fill="none" stroke="#fff" stroke-width="1.5"/>
      <ellipse id="Ellipse_149" data-name="Ellipse 149" cx="3.899" cy="3.899" rx="3.899" ry="3.899" transform="translate(31.157 25.35)" fill="none" stroke="#fff" stroke-width="1.5"/>
      <rect id="Rectangle_502" data-name="Rectangle 502" width="4.945" height="13.217" rx="2.472" transform="translate(51.128 37.664)" fill="none" stroke="#fff" stroke-width="1.5"/>
      <rect id="Rectangle_503" data-name="Rectangle 503" width="4.945" height="13.217" rx="2.472" transform="translate(13.33 37.664)" fill="none" stroke="#fff" stroke-width="1.5"/>
      <line id="Line_18" data-name="Line 18" y2="17.686" transform="translate(35.073 38.853)" fill="none" stroke="#fff" stroke-width="1.5"/>
      <path id="Path_2842" data-name="Path 2842" d="M417.593,398.938v-6.369a.521.521,0,0,1,.453-.569h6.23a.521.521,0,0,1,.453.569V394.9a.521.521,0,0,1-.453.569h-6.683" transform="translate(-382.862 -382.146)" fill="none" stroke="#fff" stroke-width="1.5"/>
      <rect id="Rectangle_504" data-name="Rectangle 504" width="60.136" height="2.327" rx="1.163" transform="translate(5.021 56.535)" fill="none" stroke="#fff" stroke-width="1.5"/>
    </g>
  </g>
</svg>
